<svg width="32" height="32" viewBox="0 0 32 32" fill="none" xmlns="http://www.w3.org/2000/svg">
<path d="M18.1417 16.324C18.1336 16.7464 18.0003 17.1569 17.7587 17.5034C17.5171 17.85 17.1781 18.117 16.7845 18.2706C16.391 18.4243 15.9607 18.4576 15.5482 18.3664C15.1357 18.2752 14.7596 18.0636 14.4675 17.7584C14.1754 17.4532 13.9805 17.0681 13.9075 16.652C13.8345 16.2359 13.8866 15.8075 14.0574 15.4211C14.2281 15.0347 14.5098 14.7077 14.8666 14.4815C15.2234 14.2553 15.6393 14.1402 16.0617 14.1507C16.6229 14.1715 17.1539 14.41 17.5422 14.8157C17.9305 15.2214 18.1455 15.7624 18.1417 16.324Z" fill="#FAFAFA"/>
<path d="M19.679 9.64404H12.4457C11.7299 9.64404 11.0435 9.92837 10.5374 10.4345C10.0313 10.9406 9.74699 11.627 9.74699 12.3427V19.7387C9.74699 20.0931 9.8168 20.444 9.95242 20.7714C10.088 21.0989 10.2868 21.3964 10.5374 21.647C10.788 21.8975 11.0855 22.0963 11.4129 22.232C11.7403 22.3676 12.0913 22.4374 12.4457 22.4374H19.679C20.0334 22.4374 20.3843 22.3676 20.7117 22.232C21.0391 22.0963 21.3366 21.8975 21.5872 21.647C21.8378 21.3964 22.0366 21.0989 22.1722 20.7714C22.3079 20.444 22.3777 20.0931 22.3777 19.7387V12.356C22.3791 12.0006 22.3103 11.6484 22.1754 11.3196C22.0404 10.9908 21.8419 10.6919 21.5912 10.44C21.3405 10.188 21.0425 9.98803 20.7144 9.85145C20.3863 9.71487 20.0344 9.64439 19.679 9.64404ZM16.0617 19.9414C15.3456 19.9575 14.641 19.76 14.0377 19.3739C13.4344 18.9879 12.9599 18.4308 12.6746 17.7739C12.3893 17.1169 12.3062 16.3898 12.4359 15.6855C12.5657 14.9811 12.9024 14.3313 13.403 13.8191C13.9036 13.3069 14.5455 12.9555 15.2468 12.8097C15.948 12.664 16.6768 12.7304 17.3401 13.0006C18.0034 13.2709 18.5711 13.7326 18.9708 14.3269C19.3706 14.9212 19.5841 15.6211 19.5843 16.3374C19.5901 16.8054 19.5036 17.2701 19.3296 17.7046C19.1556 18.1392 18.8977 18.5352 18.5705 18.87C18.2433 19.2047 17.8533 19.4717 17.4228 19.6555C16.9923 19.8394 16.5297 19.9365 16.0617 19.9414ZM19.9763 12.7347C19.8883 12.7347 19.8012 12.7172 19.7201 12.6831C19.639 12.6491 19.5655 12.5991 19.5039 12.5363C19.4423 12.4735 19.3939 12.399 19.3615 12.3172C19.329 12.2354 19.3132 12.148 19.315 12.06C19.315 11.8811 19.3861 11.7095 19.5126 11.583C19.6391 11.4565 19.8107 11.3854 19.9897 11.3854C20.1686 11.3854 20.3402 11.4565 20.4667 11.583C20.5932 11.7095 20.6643 11.8811 20.6643 12.06C20.667 12.1553 20.649 12.25 20.6117 12.3376C20.5743 12.4253 20.5185 12.5039 20.4479 12.5679C20.3774 12.632 20.2939 12.6801 20.203 12.7089C20.1122 12.7376 20.0162 12.7465 19.9217 12.7347H19.9763Z" fill="#FAFAFA"/>
<path d="M16.0617 2.66667C12.5254 2.64899 9.12703 4.03679 6.61404 6.52477C4.10105 9.01276 2.67934 12.3971 2.66166 15.9333C2.64398 19.4696 4.03178 22.868 6.51976 25.381C9.00774 27.8939 12.3921 29.3157 15.9283 29.3333C17.6793 29.3421 19.4148 29.0059 21.0358 28.3439C22.6569 27.6819 24.1316 26.7072 25.3759 25.4752C26.6202 24.2433 27.6097 22.7784 28.2879 21.164C28.966 19.5497 29.3196 17.8176 29.3283 16.0667C29.3371 14.3157 29.0009 12.5802 28.3389 10.9592C27.6769 9.33813 26.7021 7.86336 25.4702 6.61905C24.2383 5.37475 22.7734 4.38527 21.159 3.70712C19.5447 3.02897 17.8126 2.67543 16.0617 2.66667ZM24.159 19.6027C24.1627 20.2008 24.0477 20.7938 23.8205 21.3472C23.5933 21.9006 23.2586 22.4034 22.8357 22.8264C22.4127 23.2495 21.9101 23.5843 21.3567 23.8117C20.8034 24.039 20.2105 24.1542 19.6123 24.1507H12.5137C11.9155 24.1544 11.3225 24.0393 10.7691 23.8122C10.2158 23.585 9.71297 23.2503 9.28993 22.8273C8.86688 22.4044 8.53199 21.9017 8.30467 21.3484C8.07735 20.7951 7.96212 20.2022 7.96566 19.604V12.504C7.96194 11.9058 8.077 11.3129 8.30416 10.7595C8.53132 10.2061 8.86606 9.70332 9.28898 9.28027C9.7119 8.85723 10.2146 8.52234 10.7679 8.29501C11.3212 8.06769 11.9141 7.95246 12.5123 7.956H19.6123C20.2104 7.95247 20.8032 8.06765 21.3564 8.29489C21.9097 8.52213 22.4123 8.8569 22.8352 9.2798C23.2581 9.70271 23.5929 10.2053 23.8201 10.7586C24.0473 11.3118 24.1625 11.9046 24.159 12.5027V19.6027Z" fill="#FAFAFA"/>
</svg>
