<svg width="32" height="32" viewBox="0 0 32 32" fill="none" xmlns="http://www.w3.org/2000/svg">
<path d="M16.0001 2.66675C13.363 2.66675 10.7851 3.44873 8.59248 4.91382C6.39983 6.37891 4.69086 8.46129 3.68169 10.8976C2.67253 13.334 2.40848 16.0149 2.92295 18.6013C3.43742 21.1877 4.7073 23.5635 6.572 25.4282C8.4367 27.2929 10.8125 28.5627 13.3989 29.0772C15.9853 29.5917 18.6662 29.3276 21.1025 28.3185C23.5389 27.3093 25.6213 25.6003 27.0863 23.4077C28.5514 21.215 29.3334 18.6372 29.3334 16.0001C29.3299 12.4649 27.924 9.07561 25.4243 6.57589C22.9246 4.07617 19.5352 2.67028 16.0001 2.66675ZM23.9188 12.9507V13.8121C23.9188 13.878 23.9056 13.9433 23.88 14.004C23.8543 14.0647 23.8168 14.1197 23.7696 14.1657C23.7223 14.2117 23.6664 14.2478 23.605 14.2718C23.5436 14.2958 23.478 14.3072 23.4121 14.3054C22.0043 14.206 20.6575 13.6919 19.5414 12.8281V19.1321C19.5411 19.8298 19.4018 20.5204 19.1317 21.1637C18.8616 21.807 18.466 22.39 17.9681 22.8787C17.4661 23.3803 16.8691 23.7766 16.212 24.0444C15.5549 24.3123 14.851 24.4464 14.1414 24.4387C12.7146 24.4367 11.3451 23.8768 10.3254 22.8787C9.67661 22.2246 9.20928 21.4128 8.96941 20.5233C8.72955 19.6337 8.72542 18.6971 8.95742 17.8054C9.16942 16.9494 9.59742 16.1627 10.2014 15.5214C10.6519 14.9709 11.2197 14.5279 11.8633 14.225C12.5069 13.9221 13.2101 13.7669 13.9214 13.7707H15.0148V16.0414C15.0152 16.1074 15.0017 16.1727 14.9749 16.2329C14.9482 16.2932 14.9089 16.3471 14.8597 16.391C14.8105 16.4349 14.7525 16.4678 14.6896 16.4876C14.6266 16.5073 14.5602 16.5134 14.4948 16.5054C13.8599 16.3147 13.1759 16.378 12.5868 16.6818C11.9977 16.9857 11.5496 17.5064 11.3369 18.1341C11.1243 18.7619 11.1637 19.4478 11.4468 20.0471C11.73 20.6464 12.2347 21.1124 12.8548 21.3467C13.2148 21.5534 13.6174 21.6747 14.0308 21.7027C14.3508 21.7161 14.6708 21.6761 14.9748 21.5801C15.4823 21.4089 15.9237 21.0836 16.2375 20.6495C16.5513 20.2155 16.7219 19.6943 16.7254 19.1587V7.67208C16.7254 7.54501 16.7758 7.42312 16.8655 7.33314C16.9553 7.24316 17.077 7.19243 17.2041 7.19208H19.0908C19.2133 7.19223 19.3312 7.23928 19.4202 7.32357C19.5092 7.40787 19.5626 7.52302 19.5694 7.64541C19.6382 8.23372 19.825 8.80208 20.1188 9.31644C20.4125 9.83079 20.807 10.2805 21.2788 10.6387C21.9162 11.1173 22.6733 11.4107 23.4668 11.4867C23.5856 11.4969 23.6967 11.5498 23.7796 11.6356C23.8624 11.7214 23.9114 11.8343 23.9174 11.9534L23.9188 12.9507Z" fill="#FAFAFA"/>
</svg>
