<svg width="28" height="28" viewBox="0 0 28 28" fill="none" xmlns="http://www.w3.org/2000/svg">
<path d="M13.995 0.666626C11.3579 0.666626 8.78005 1.44861 6.5874 2.9137C4.39474 4.37878 2.68577 6.46116 1.6766 8.89751C0.667436 11.3339 0.403392 14.0147 0.917862 16.6012C1.43233 19.1876 2.70221 21.5633 4.56691 23.428C6.43161 25.2927 8.80738 26.5626 11.3938 27.0771C13.9802 27.5916 16.6611 27.3275 19.0974 26.3184C21.5338 25.3092 23.6162 23.6002 25.0813 21.4076C26.5463 19.2149 27.3283 16.637 27.3283 14C27.3248 10.4648 25.9189 7.07549 23.4192 4.57577C20.9195 2.07605 17.5301 0.670156 13.995 0.666626ZM21.9137 10.9506V11.812C21.9137 11.8779 21.9005 11.9431 21.8749 12.0039C21.8493 12.0646 21.8117 12.1196 21.7645 12.1656C21.7173 12.2116 21.6613 12.2476 21.5999 12.2716C21.5385 12.2956 21.4729 12.3071 21.407 12.3053C19.9992 12.2058 18.6524 11.6918 17.5363 10.828V17.132C17.536 17.8297 17.3967 18.5203 17.1266 19.1636C16.8565 19.8069 16.4609 20.3899 15.963 20.8786C15.461 21.3801 14.864 21.7764 14.2069 22.0443C13.5498 22.3122 12.8459 22.4462 12.1363 22.4386C10.7095 22.4366 9.34 21.8767 8.32033 20.8786C7.67152 20.2245 7.20419 19.4127 6.96433 18.5232C6.72446 17.6336 6.72033 16.6969 6.95233 15.8053C7.16433 14.9493 7.59233 14.1626 8.19633 13.5213C8.64677 12.9707 9.21456 12.5278 9.85819 12.2249C10.5018 11.922 11.205 11.7668 11.9163 11.7706H13.0097V14.0413C13.0101 14.1072 12.9966 14.1725 12.9698 14.2328C12.9431 14.2931 12.9038 14.347 12.8546 14.3909C12.8054 14.4348 12.7474 14.4677 12.6845 14.4874C12.6215 14.5072 12.5551 14.5133 12.4897 14.5053C11.8549 14.3146 11.1708 14.3779 10.5817 14.6817C9.99263 14.9855 9.54452 15.5062 9.33186 16.134C9.11919 16.7618 9.15859 17.4477 9.44173 18.047C9.72488 18.6463 10.2297 19.1122 10.8497 19.3466C11.2097 19.5533 11.6123 19.6746 12.0257 19.7026C12.3457 19.716 12.6657 19.676 12.9697 19.58C13.4772 19.4087 13.9186 19.0834 14.2324 18.6494C14.5462 18.2154 14.7168 17.6942 14.7203 17.1586V5.67196C14.7203 5.54489 14.7707 5.423 14.8604 5.33302C14.9502 5.24304 15.0719 5.19231 15.199 5.19196H17.0857C17.2083 5.19211 17.3261 5.23916 17.4151 5.32345C17.5041 5.40774 17.5575 5.5229 17.5643 5.64529C17.6331 6.2336 17.82 6.80196 18.1137 7.31631C18.4074 7.83067 18.8019 8.28043 19.2737 8.63863C19.9111 9.11714 20.6682 9.41057 21.4617 9.48662C21.5805 9.49679 21.6916 9.54966 21.7745 9.63546C21.8574 9.72126 21.9063 9.83417 21.9123 9.95329L21.9137 10.9506Z" fill="#FAFAFA"/>
</svg>
