<svg width="32" height="32" viewBox="0 0 32 32" fill="none" xmlns="http://www.w3.org/2000/svg">
<g clip-path="url(#clip0_476_42)">
<path d="M18.5647 15.7327L14.9711 14.0559C14.6575 13.9103 14.3999 14.0735 14.3999 14.4207V17.5791C14.3999 17.9263 14.6575 18.0895 14.9711 17.9439L18.5631 16.2671C18.8783 16.1199 18.8783 15.8799 18.5647 15.7327ZM15.9999 0.639893C7.51669 0.639893 0.639893 7.51669 0.639893 15.9999C0.639893 24.4831 7.51669 31.3599 15.9999 31.3599C24.4831 31.3599 31.3599 24.4831 31.3599 15.9999C31.3599 7.51669 24.4831 0.639893 15.9999 0.639893ZM15.9999 22.2399C8.13749 22.2399 7.99989 21.5311 7.99989 15.9999C7.99989 10.4687 8.13749 9.75989 15.9999 9.75989C23.8623 9.75989 23.9999 10.4687 23.9999 15.9999C23.9999 21.5311 23.8623 22.2399 15.9999 22.2399Z" fill="#FAFAFA"/>
</g>
<defs>
<clipPath id="clip0_476_42">
<rect width="32" height="32" fill="white"/>
</clipPath>
</defs>
</svg>
