<svg width="32" height="32" viewBox="0 0 32 32" fill="none" xmlns="http://www.w3.org/2000/svg">
<path d="M18.5598 15.7328L14.9662 14.056C14.6526 13.9104 14.395 14.0736 14.395 14.4208V17.5792C14.395 17.9264 14.6526 18.0896 14.9662 17.944L18.5582 16.2672C18.8734 16.12 18.8734 15.88 18.5598 15.7328ZM15.995 0.640015C7.5118 0.640015 0.634995 7.51682 0.634995 16C0.634995 24.4832 7.5118 31.36 15.995 31.36C24.4782 31.36 31.355 24.4832 31.355 16C31.355 7.51682 24.4782 0.640015 15.995 0.640015ZM15.995 22.24C8.1326 22.24 7.99499 21.5312 7.99499 16C7.99499 10.4688 8.1326 9.76001 15.995 9.76001C23.8574 9.76001 23.995 10.4688 23.995 16C23.995 21.5312 23.8574 22.24 15.995 22.24Z" fill="#FAFAFA"/>
</svg>
