<svg width="40" height="40" viewBox="0 0 40 40" fill="none" xmlns="http://www.w3.org/2000/svg">
<path d="M20.005 2.38313e-07C23.0816 0.00106823 26.1165 0.711766 28.8736 2.07682C31.6307 3.44187 34.0357 5.42447 35.9016 7.87043C37.7675 10.3164 39.0439 13.1598 39.6316 16.1794C40.2194 19.199 40.1025 22.3135 39.2902 25.2807C38.4779 28.2478 36.992 30.9875 34.9481 33.2868C32.9042 35.5861 30.3574 37.383 27.5057 38.5377C24.6541 39.6924 21.5745 40.1737 18.5065 39.9443C15.4384 39.7149 12.4647 38.7809 9.81653 37.215L1.64825 39.935C1.42818 40.008 1.19215 40.0184 0.966536 39.9649C0.74092 39.9115 0.534608 39.7964 0.370661 39.6325C0.206713 39.4685 0.0915901 39.2622 0.038158 39.0366C-0.0152741 38.811 -0.00490932 38.575 0.0680938 38.355L2.79086 30.19C0.992323 27.1528 0.0296739 23.6938 0.000675114 20.1643C-0.0283237 16.6348 0.877361 13.1604 2.62575 10.0941C4.37414 7.02781 6.90294 4.47878 9.95535 2.70591C13.0078 0.933029 16.475 -0.000544567 20.005 2.38313e-07ZM20.005 2.5C16.8719 2.49954 13.7961 3.34007 11.0987 4.93385C8.40132 6.52762 6.18128 8.81621 4.67033 11.5607C3.15939 14.3051 2.41296 17.4048 2.50896 20.5362C2.60496 23.6676 3.53987 26.7157 5.21609 29.3625C5.31547 29.5192 5.37869 29.6961 5.40118 29.8803C5.42367 30.0646 5.40486 30.2515 5.3461 30.4275L3.2309 36.775L9.58151 34.66C9.75721 34.6016 9.94367 34.583 10.1274 34.6055C10.3112 34.628 10.4877 34.691 10.6441 34.79C12.9379 36.2407 15.5378 37.138 18.2381 37.4111C20.9385 37.6843 23.6654 37.3257 26.2033 36.3637C28.7412 35.4017 31.0205 33.8627 32.8612 31.8683C34.7019 29.8739 36.0535 27.4788 36.8092 24.8722C37.5648 22.2656 37.7038 19.519 37.2152 16.8495C36.7266 14.18 35.6237 11.6607 33.9938 9.49064C32.3639 7.32063 30.2515 5.5594 27.8237 4.34615C25.3959 3.13289 22.7192 2.50086 20.005 2.5ZM13.0393 10.01C13.3669 10.01 13.6944 10.01 13.9794 10.0225C14.2795 10.0425 14.6845 9.8975 15.087 10.93C15.4971 11.9925 16.4822 14.61 16.6047 14.8725C16.7297 15.135 16.8097 15.4475 16.6497 15.8C16.4847 16.155 16.3997 16.3775 16.1546 16.6825C15.9096 16.995 15.6396 17.375 15.4146 17.61C15.1695 17.8775 14.912 18.16 15.2021 18.6925C15.4846 19.22 16.4772 20.9625 17.9373 22.365C19.82 24.175 21.4027 24.7375 21.8977 25C22.3877 25.265 22.6778 25.215 22.9603 24.8675C23.2503 24.5175 24.1879 23.32 24.518 22.7875C24.8455 22.26 25.1755 22.3425 25.6256 22.525C26.0756 22.7 28.4983 23.98 28.9884 24.2425C29.4834 24.5125 29.8135 24.6475 29.9335 24.8675C30.0585 25.0925 30.0585 26.1525 29.6509 27.3875C29.2384 28.6275 27.2757 29.76 26.3281 29.9125C25.478 30.045 24.4029 30.1 23.2253 29.6975C22.2713 29.3766 21.3357 29.0035 20.4226 28.58C15.4846 26.28 12.2593 20.93 12.0142 20.58C11.7667 20.23 10.0041 17.705 10.0041 15.095C10.0041 12.49 11.2742 11.205 11.7242 10.6775C11.8819 10.4777 12.0812 10.3147 12.3084 10.1998C12.5355 10.085 12.785 10.0186 13.0393 10.01Z" fill="#DF3F53"/>
</svg>
