<svg width="23" height="23" viewBox="0 0 23 23" fill="none" xmlns="http://www.w3.org/2000/svg">
<path d="M11.042 21.584C16.864 21.584 21.584 16.864 21.584 11.042C21.584 5.22 16.864 0.5 11.042 0.5C5.22 0.5 0.5 5.22 0.5 11.042C0.5 16.864 5.22 21.584 11.042 21.584Z" fill="#FF808C"/>
<path d="M3.58806 18.496C1.64129 16.5128 0.556336 13.8412 0.569205 11.0622C0.582074 8.28324 1.69172 5.62176 3.65677 3.65671C5.62182 1.69166 8.28331 0.582013 11.0623 0.569144C13.8412 0.556275 16.5129 1.64123 18.4961 3.58799L3.58806 18.496Z" fill="#FFBFC5"/>
<path d="M6.459 6.459L15.625 15.625M15.625 6.459L6.459 15.625M11.042 21.584C16.864 21.584 21.584 16.864 21.584 11.042C21.584 5.22 16.864 0.5 11.042 0.5C5.22 0.5 0.5 5.22 0.5 11.042C0.5 16.864 5.22 21.584 11.042 21.584Z" stroke="#191919" stroke-linecap="round" stroke-linejoin="round"/>
</svg>
