<svg width="48" height="48" viewBox="0 0 48 48" fill="none" xmlns="http://www.w3.org/2000/svg">
<g clip-path="url(#clip0_598_223)">
<path fill-rule="evenodd" clip-rule="evenodd" d="M15.8001 16.9399C16.5181 17.7799 17.5161 17.9779 18.0961 18.6179C18.2593 18.8306 18.3504 19.0898 18.3561 19.3579C18.3566 19.511 18.4177 19.6577 18.526 19.766C18.6343 19.8743 18.781 19.9353 18.9341 19.9359H19.2541C20.0995 20.1759 20.9581 20.3492 21.8301 20.4559C22.2035 20.4959 22.5768 20.4959 22.9501 20.4559C23.3248 20.4359 23.6968 20.3892 24.0661 20.3159C24.8461 20.1759 25.6061 19.9359 26.3841 19.7159V21.2739C26.3841 22.4519 24.9841 22.7719 24.1261 22.8519C22.8188 22.9414 21.5061 22.7923 20.2521 22.4119C20.3921 21.9919 19.9121 20.8739 19.8721 20.5139C19.8403 20.3462 19.7454 20.197 19.6068 20.0973C19.4683 19.9976 19.2968 19.9549 19.1276 19.978C18.9585 20.0011 18.8047 20.0882 18.698 20.2214C18.5913 20.3547 18.5398 20.5238 18.5541 20.6939C18.5541 21.1339 18.5541 22.3919 18.7541 22.8919C18.773 23.0487 18.8329 23.1978 18.9277 23.3242C19.0224 23.4506 19.1488 23.5498 19.2941 23.6119C20.8741 24.2099 22.5541 24.5019 24.2461 24.4679C25.5272 24.4639 26.7548 23.9543 27.6621 23.0499C27.9346 22.713 28.1016 22.3032 28.1421 21.8719C28.1421 21.3519 28.1421 20.6539 28.2621 20.0359C28.3821 19.4179 28.5821 19.2759 30.3981 17.6579C31.3221 16.5779 31.8321 15.2059 31.8361 13.7839C31.7847 11.7847 31.0833 9.85673 29.8381 8.29187C28.7566 6.94776 27.2822 5.97506 25.6209 5.50964C23.9597 5.04421 22.1946 5.10932 20.5721 5.69587C18.9667 6.20891 17.5534 7.1941 16.5165 8.52279C15.4797 9.85148 14.8676 11.4619 14.7601 13.1439C14.7081 13.9319 14.7961 14.7239 15.0201 15.4819C15.1801 16.0139 15.4461 16.5079 15.8001 16.9399ZM16.3181 13.2839C16.4767 11.9696 17.0227 10.7322 17.8868 9.72926C18.7508 8.72632 19.8938 8.00317 21.1701 7.65187C22.3816 7.23725 23.6916 7.20664 24.9211 7.56423C26.1507 7.92182 27.2399 8.65018 28.0401 9.64987C28.8361 10.6219 29.3661 11.7859 29.5801 13.0259C29.6958 13.5955 29.6859 14.1835 29.5512 14.7489C29.4165 15.3143 29.1602 15.8436 28.8001 16.2999L26.8021 18.1579C26.7445 18.231 26.6974 18.3117 26.6621 18.3979C26.5505 18.3699 26.4337 18.3699 26.3221 18.3979C25.4641 18.3979 24.6461 18.2979 23.8081 18.2779H21.7101C20.9101 18.3979 20.1521 18.5979 19.3541 18.6979C19.2848 18.3636 19.1412 18.0492 18.9341 17.7779C18.4141 17.1379 17.4361 16.8979 16.7761 16.0399C16.5133 15.6507 16.3423 15.2068 16.2761 14.7419C16.2151 14.2567 16.2286 13.765 16.3161 13.2839" fill="#DF3F53"/>
<path fill-rule="evenodd" clip-rule="evenodd" d="M11.1444 8.43194C11.2818 8.57461 11.4284 8.70794 11.5844 8.83194C11.7244 8.94928 11.8711 9.05595 12.0244 9.15195C12.4844 9.39194 12.9244 9.48994 13.3624 9.74994C13.4659 9.86399 13.6104 9.93227 13.7641 9.93977C13.9179 9.94727 14.0684 9.89338 14.1824 9.78994C14.2965 9.68651 14.3648 9.54201 14.3723 9.38823C14.3798 9.23445 14.3259 9.08399 14.2224 8.96994C14.0104 8.43749 13.7205 7.93941 13.3624 7.49194C13.2123 7.31422 13.0371 7.15926 12.8424 7.03194C12.6561 6.89662 12.4547 6.78321 12.2424 6.69394C11.7618 6.49547 11.2687 6.32845 10.7664 6.19394C10.6179 6.09581 10.4365 6.0607 10.2621 6.09633C10.0877 6.13197 9.93456 6.23542 9.83643 6.38394C9.7383 6.53247 9.70318 6.71389 9.73882 6.88829C9.77445 7.0627 9.8779 7.21581 10.0264 7.31394C10.4664 7.69394 10.7644 8.05194 11.1444 8.43194ZM16.8964 2.55994C16.9578 2.77061 17.0311 2.97728 17.1164 3.17994C17.2164 3.37194 17.3298 3.55861 17.4564 3.73994C17.7964 4.15794 18.1764 4.45794 18.5564 4.87594C18.5876 4.94581 18.6323 5.00881 18.6879 5.06133C18.7435 5.11385 18.809 5.15484 18.8806 5.18195C18.9521 5.20906 19.0283 5.22175 19.1048 5.21929C19.1812 5.21682 19.2564 5.19926 19.3261 5.1676C19.3957 5.13594 19.4584 5.09082 19.5106 5.03483C19.5627 4.97884 19.6032 4.91309 19.6299 4.84136C19.6565 4.76964 19.6686 4.69336 19.6656 4.61691C19.6626 4.54047 19.6446 4.46537 19.6124 4.39594C19.5639 3.85307 19.4838 3.31348 19.3724 2.77994C19.2408 2.3483 19.0246 1.94717 18.7364 1.59994C18.4094 1.18435 18.0553 0.790826 17.6764 0.421944C17.6384 0.317012 17.5735 0.223862 17.4883 0.151744C17.4031 0.0796256 17.3005 0.0310463 17.1907 0.0108288C17.0809 -0.0093887 16.9678 -0.000541192 16.8625 0.036493C16.7572 0.0735271 16.6634 0.13746 16.5904 0.221944C16.5032 0.322654 16.4495 0.448085 16.437 0.580741C16.4244 0.713396 16.4536 0.846661 16.5204 0.961944C16.6138 1.50328 16.7404 2.03594 16.9004 2.55994M25.6244 4.35794C25.6218 4.43412 25.6341 4.51008 25.6608 4.58147C25.6875 4.65287 25.728 4.7183 25.7801 4.77402C25.8321 4.82975 25.8945 4.87467 25.9639 4.90623C26.0333 4.93779 26.1082 4.95536 26.1844 4.95794C26.3369 4.95828 26.4837 4.90059 26.5952 4.79658C26.7066 4.69257 26.7743 4.55004 26.7844 4.39794C27.0098 3.96194 27.1958 3.50861 27.3424 3.03794C27.3728 2.79288 27.3728 2.54501 27.3424 2.29994C27.3424 1.89994 27.1624 1.55994 27.1824 1.17994C27.2403 1.01299 27.2309 0.830062 27.1562 0.66991C27.0816 0.509758 26.9475 0.384958 26.7824 0.321944C26.618 0.264182 26.4373 0.273824 26.28 0.348765C26.1226 0.423706 26.0012 0.55786 25.9424 0.721944C25.6502 1.11013 25.4214 1.54215 25.2644 2.00194C25.1881 2.17924 25.1409 2.36764 25.1244 2.55994C25.0952 2.74547 25.0952 2.93442 25.1244 3.11994C25.2551 3.54661 25.4218 3.95928 25.6244 4.35794ZM32.4164 9.46994H34.5524L35.1524 9.26995C35.6324 9.08994 36.0724 8.84994 36.5704 8.64994C36.6573 8.63775 36.7409 8.60835 36.8163 8.56347C36.8917 8.51858 36.9574 8.45911 37.0096 8.38853C37.0617 8.31794 37.0993 8.23767 37.12 8.15241C37.1408 8.06714 37.1443 7.97859 37.1304 7.89194C37.1056 7.72 37.014 7.56476 36.8755 7.45993C36.7369 7.35509 36.5626 7.3091 36.3904 7.33194C35.8104 7.33194 35.3104 7.21194 34.7524 7.21194C34.52 7.18266 34.2848 7.18266 34.0524 7.21194C33.818 7.25609 33.5901 7.33003 33.3744 7.43194C32.8642 7.70852 32.3882 8.04416 31.9564 8.43194C31.8704 8.47054 31.7951 8.52952 31.737 8.60378C31.6789 8.67804 31.6398 8.76534 31.6231 8.85812C31.6063 8.9509 31.6124 9.04637 31.6409 9.13625C31.6694 9.22613 31.7193 9.30772 31.7864 9.37394C31.8692 9.45209 31.9739 9.50315 32.0864 9.5203C32.199 9.53745 32.3141 9.51989 32.4164 9.46994ZM18.5744 26.0259C18.4633 25.9219 18.3167 25.864 18.1644 25.864C18.0122 25.864 17.8656 25.9219 17.7544 26.0259C16.6364 27.0659 15.2584 28.0239 13.8604 29.1019C13.0224 29.7419 12.2044 30.4219 11.2844 30.9999C10.3378 31.6426 9.33243 32.1753 8.26843 32.5979C8.183 32.6165 8.10228 32.6523 8.03123 32.7033C7.96019 32.7542 7.90034 32.8191 7.85536 32.8941C7.81039 32.9691 7.78125 33.0524 7.76973 33.1391C7.75822 33.2257 7.76458 33.3138 7.78843 33.3979C7.83137 33.5673 7.93969 33.7127 8.08965 33.8023C8.2396 33.8919 8.41897 33.9184 8.58843 33.8759C10.0735 33.6343 11.5099 33.1548 12.8424 32.4559C13.4079 32.1608 13.949 31.8211 14.4604 31.4399C15.0044 31.0946 15.5238 30.7146 16.0184 30.2999C16.9864 29.2333 17.8518 28.0886 18.6144 26.8659C18.6688 26.8091 18.7111 26.7418 18.7386 26.6681C18.7662 26.5944 18.7785 26.5159 18.7747 26.4374C18.771 26.3588 18.7513 26.2818 18.7169 26.2111C18.6824 26.1403 18.634 26.0774 18.5744 26.0259ZM24.5664 26.5859C24.5614 26.439 24.5008 26.2994 24.3969 26.1955C24.2929 26.0915 24.1534 26.0309 24.0064 26.0259C23.8506 26.0204 23.6987 26.0758 23.5829 26.1803C23.4672 26.2848 23.3967 26.4303 23.3864 26.5859C23.2084 27.5659 22.9284 28.5839 22.7884 29.5619C22.7484 30.0019 22.7484 30.4413 22.7884 30.8799C22.7964 31.3373 22.8431 31.7899 22.9284 32.2379C23.1024 33.2919 23.4324 34.3159 23.9084 35.2739C23.932 35.3884 23.9855 35.4946 24.0636 35.5816C24.1417 35.6686 24.2414 35.7333 24.3527 35.7691C24.464 35.805 24.5828 35.8106 24.6969 35.7854C24.8111 35.7602 24.9165 35.7052 25.0024 35.6259C25.1059 35.5297 25.1758 35.4027 25.2017 35.2637C25.2277 35.1247 25.2083 34.9811 25.1464 34.8539C24.9913 33.9169 24.9243 32.9674 24.9464 32.0179V30.0219C24.8864 28.8219 24.6864 27.7039 24.5664 26.5859ZM37.2684 35.3539C37.3393 35.4039 37.4194 35.4394 37.504 35.4584C37.5886 35.4773 37.6761 35.4795 37.7616 35.4646C37.847 35.4497 37.9287 35.4182 38.0019 35.3717C38.0752 35.3253 38.1385 35.2649 38.1884 35.1939C38.2411 35.124 38.2788 35.0441 38.2993 34.959C38.3199 34.8739 38.3227 34.7855 38.3077 34.6993C38.2927 34.6131 38.2602 34.5308 38.2122 34.4577C38.1641 34.3845 38.1016 34.322 38.0284 34.2739C37.4592 33.7796 36.9183 33.2534 36.4084 32.6979C35.8904 32.1379 35.4504 31.5379 34.9724 30.9379C34.4924 30.3399 34.0524 29.7619 33.5724 29.1819C32.5744 27.9439 31.5764 26.7859 30.6784 25.5679C30.6403 25.501 30.5894 25.4422 30.5286 25.3949C30.4678 25.3475 30.3983 25.3127 30.324 25.2923C30.2497 25.2718 30.1721 25.2662 30.0957 25.2758C30.0192 25.2853 29.9454 25.3099 29.8784 25.3479C29.8115 25.386 29.7526 25.4369 29.7053 25.4977C29.658 25.5586 29.6232 25.6281 29.6027 25.7024C29.5823 25.7767 29.5767 25.8542 29.5863 25.9307C29.5958 26.0072 29.6203 26.081 29.6584 26.1479C30.1784 27.4799 30.7851 28.7713 31.4784 30.0219C31.8011 30.5419 32.1531 31.0413 32.5344 31.5199C32.9184 32.0053 33.3384 32.4579 33.7944 32.8779C34.8484 33.8399 36.0144 34.6719 37.2684 35.3539Z" fill="#DF3F53"/>
<path fill-rule="evenodd" clip-rule="evenodd" d="M7.1102 36.0119C5.67099 36.0537 4.30383 36.651 3.29528 37.6785C2.28673 38.7061 1.71509 40.0842 1.7002 41.5239C1.8002 47.7559 13.2042 48.9539 12.7842 41.1239C12.7646 40.4102 12.6002 39.7078 12.301 39.0595C12.0019 38.4112 11.5741 37.8304 11.0437 37.3524C10.5133 36.8744 9.89135 36.5091 9.21553 36.2787C8.53972 36.0482 7.82214 35.9575 7.1102 36.0119ZM3.5782 41.6039C3.62994 40.6683 4.04507 39.7898 4.73511 39.1558C5.42515 38.5218 6.33552 38.1824 7.27219 38.2099C7.71534 38.16 8.16401 38.2011 8.59071 38.3307C9.0174 38.4603 9.41311 38.6758 9.75357 38.9638C10.094 39.2518 10.3721 39.6063 10.5706 40.0057C10.7692 40.405 10.884 40.8406 10.9082 41.2859C11.6682 47.5759 3.2982 46.1579 3.5782 41.5659V41.6039ZM28.2802 43.4219C27.4622 42.2819 26.6642 40.2259 25.5242 38.8479C24.932 38.075 24.1271 37.4918 23.2082 37.1699C22.9574 37.1208 22.6977 37.1479 22.4624 37.2477C22.2272 37.3476 22.0272 37.5155 21.8882 37.7299C21.5902 38.1899 20.9322 39.4279 20.8722 39.5279L17.1362 46.1179C17.0734 46.2138 17.0404 46.3261 17.0413 46.4407C17.0423 46.5553 17.0772 46.667 17.1416 46.7618C17.206 46.8566 17.297 46.9302 17.4032 46.9733C17.5094 47.0163 17.626 47.027 17.7382 47.0039C17.8914 46.9742 18.027 46.886 18.1162 46.7579L22.4482 40.6059C22.4482 40.6059 23.0082 40.1059 23.3482 39.6859C23.6642 40.0259 23.9442 40.3926 24.1882 40.7859C25.0662 42.1039 25.8042 43.7219 26.5242 44.7799C26.8509 45.0359 27.1635 45.3093 27.4622 45.5999H27.3622C27.0531 45.7471 26.7319 45.8675 26.4022 45.9599C25.597 46.1967 24.7665 46.337 23.9282 46.3779C22.6082 46.4779 21.2702 46.3779 19.9322 46.3779C19.7743 46.4053 19.6312 46.4875 19.5281 46.6101C19.4249 46.7327 19.3684 46.8877 19.3684 47.0479C19.3684 47.2081 19.4249 47.3632 19.5281 47.4858C19.6312 47.6083 19.7743 47.6906 19.9322 47.7179C21.3122 47.8159 22.6682 47.9759 24.0462 47.9959C25.0142 48.0219 25.9802 47.9279 26.9222 47.7159C27.4515 47.6159 27.9649 47.4626 28.4622 47.2559C28.8942 47.0599 29.2722 46.7579 29.5582 46.3779C29.6764 46.1817 29.7388 45.957 29.7388 45.7279C29.7388 45.4989 29.6764 45.2742 29.5582 45.0779C29.1982 44.6199 28.3802 43.5619 28.2802 43.4219ZM46.2762 42.4039C46.377 40.9905 46.1934 39.5712 45.7362 38.2299C45.4299 37.7196 44.9815 37.3097 44.4458 37.0504C43.9101 36.7911 43.3104 36.6936 42.7202 36.7699C42.0177 36.7874 41.3173 36.8543 40.6242 36.9699C39.1062 37.2099 37.6282 37.6099 36.0902 37.7699C35.9133 37.7852 35.7494 37.8691 35.6336 38.0037C35.5177 38.1382 35.4591 38.3127 35.4702 38.4899C35.4777 38.5767 35.5024 38.6612 35.5427 38.7384C35.583 38.8157 35.6383 38.8841 35.7052 38.9399C35.7721 38.9957 35.8495 39.0377 35.9327 39.0634C36.0159 39.0892 36.1035 39.0982 36.1902 39.0899C37.7482 39.0899 39.2862 38.7099 40.8242 38.5699C41.4495 38.5179 42.0749 38.5179 42.7002 38.5699C43.4402 38.5699 43.8402 38.7899 44.0402 39.1699C44.2562 40.2619 44.2562 41.3899 44.0402 42.4839C44.0802 43.0439 44.0802 43.6033 44.0402 44.1619C44.072 44.4903 43.9947 44.82 43.8202 45.0999C43.5853 45.2434 43.3155 45.3196 43.0402 45.3199C42.2602 45.4399 41.3622 45.4399 40.8442 45.5399L38.5862 45.7599H37.0082C36.7028 45.7881 36.3955 45.7881 36.0902 45.7599C35.8666 45.7454 35.6486 45.6841 35.4502 45.5799C35.2102 45.4399 35.1502 44.9799 35.0702 44.4799C34.9379 43.5666 34.8585 42.6464 34.8322 41.7239C34.8033 41.205 34.8033 40.6849 34.8322 40.1659C34.804 39.6537 34.804 39.1402 34.8322 38.6279C34.8427 38.5518 34.8381 38.4743 34.8187 38.3999C34.7992 38.3255 34.7653 38.2557 34.7189 38.1944C34.6725 38.1331 34.6144 38.0815 34.5481 38.0427C34.4817 38.0038 34.4084 37.9784 34.3322 37.9679C34.256 37.9574 34.1785 37.962 34.1041 37.9815C34.0298 38.0009 33.9599 38.0348 33.8986 38.0812C33.8374 38.1277 33.7858 38.1857 33.747 38.2521C33.7081 38.3184 33.6827 38.3918 33.6722 38.4679C33.5789 39.0119 33.5129 39.5586 33.4742 40.1079C33.4456 40.6596 33.4456 41.2123 33.4742 41.7639C33.3702 42.9203 33.3702 44.0836 33.4742 45.2399C33.5482 45.9439 33.8742 46.5959 34.3942 47.0779C34.7062 47.2999 35.0582 47.4619 35.4322 47.5579C35.8775 47.6779 36.3302 47.7639 36.7902 47.8159L38.6062 47.9159L41.1442 47.7559C41.7842 47.6559 42.9002 47.7559 43.7802 47.4959C44.3402 47.3879 44.8642 47.1319 45.2982 46.7559C45.7102 46.3459 45.9842 45.8159 46.0782 45.2399C46.2542 44.3059 46.3222 43.3539 46.2762 42.4039Z" fill="#DF3F53"/>
</g>
<defs>
<clipPath id="clip0_598_223">
<rect width="48" height="48" rx="8" fill="white"/>
</clipPath>
</defs>
</svg>
