<svg width="32" height="32" viewBox="0 0 32 32" fill="none" xmlns="http://www.w3.org/2000/svg">
<path d="M18.1471 16.3239C18.1391 16.7463 18.0058 17.1568 17.7642 17.5033C17.5226 17.8499 17.1835 18.1169 16.79 18.2705C16.3965 18.4241 15.9662 18.4575 15.5537 18.3663C15.1412 18.2751 14.7651 18.0635 14.473 17.7583C14.1809 17.4531 13.986 17.068 13.913 16.6519C13.84 16.2358 13.8921 15.8074 14.0629 15.421C14.2336 15.0346 14.5153 14.7076 14.8721 14.4814C15.2289 14.2552 15.6448 14.1401 16.0671 14.1506C16.6283 14.1713 17.1594 14.4099 17.5477 14.8156C17.936 15.2213 18.151 15.7623 18.1471 16.3239Z" fill="#FAFAFA"/>
<path d="M19.684 9.64404H12.4506C11.7349 9.64404 11.0485 9.92837 10.5424 10.4345C10.0363 10.9406 9.75195 11.627 9.75195 12.3427V19.7387C9.75195 20.0931 9.82176 20.444 9.95738 20.7714C10.093 21.0989 10.2918 21.3964 10.5424 21.647C10.793 21.8975 11.0905 22.0963 11.4179 22.232C11.7453 22.3676 12.0962 22.4374 12.4506 22.4374H19.684C20.0383 22.4374 20.3893 22.3676 20.7167 22.232C21.0441 22.0963 21.3416 21.8975 21.5922 21.647C21.8428 21.3964 22.0416 21.0989 22.1772 20.7714C22.3128 20.444 22.3826 20.0931 22.3826 19.7387V12.356C22.384 12.0006 22.3153 11.6484 22.1803 11.3196C22.0454 10.9908 21.8468 10.6919 21.5961 10.44C21.3454 10.188 21.0475 9.98803 20.7194 9.85145C20.3912 9.71487 20.0394 9.64439 19.684 9.64404ZM16.0666 19.9414C15.3506 19.9575 14.6459 19.76 14.0427 19.3739C13.4394 18.9879 12.9648 18.4308 12.6795 17.7739C12.3942 17.1169 12.3112 16.3898 12.4409 15.6855C12.5706 14.9811 12.9073 14.3313 13.408 13.8191C13.9086 13.3069 14.5505 12.9555 15.2517 12.8097C15.953 12.664 16.6817 12.7304 17.345 13.0006C18.0083 13.2709 18.5761 13.7326 18.9758 14.3269C19.3755 14.9212 19.5891 15.6211 19.5893 16.3374C19.5951 16.8054 19.5085 17.2701 19.3346 17.7046C19.1606 18.1392 18.9026 18.5352 18.5754 18.87C18.2482 19.2047 17.8582 19.4717 17.4277 19.6555C16.9972 19.8394 16.5347 19.9365 16.0666 19.9414ZM19.9813 12.7347C19.8933 12.7347 19.8062 12.7172 19.7251 12.6831C19.644 12.6491 19.5705 12.5991 19.5089 12.5363C19.4473 12.4735 19.3989 12.399 19.3664 12.3172C19.334 12.2354 19.3182 12.148 19.32 12.06C19.32 11.8811 19.391 11.7095 19.5176 11.583C19.6441 11.4565 19.8157 11.3854 19.9946 11.3854C20.1736 11.3854 20.3452 11.4565 20.4717 11.583C20.5982 11.7095 20.6693 11.8811 20.6693 12.06C20.6719 12.1553 20.654 12.25 20.6166 12.3376C20.5793 12.4253 20.5234 12.5039 20.4529 12.5679C20.3824 12.632 20.2988 12.6801 20.208 12.7089C20.1172 12.7376 20.0212 12.7465 19.9266 12.7347H19.9813Z" fill="#FAFAFA"/>
<path d="M16.0662 2.66667C12.53 2.64899 9.13155 4.03679 6.61857 6.52477C4.10558 9.01276 2.68386 12.3971 2.66618 15.9333C2.6485 19.4696 4.0363 22.868 6.52428 25.381C9.01227 27.8939 12.3966 29.3157 15.9328 29.3333C17.6838 29.3421 19.4193 29.0059 21.0404 28.3439C22.6614 27.6819 24.1362 26.7072 25.3805 25.4752C26.6248 24.2433 27.6142 22.7784 28.2924 21.164C28.9706 19.5497 29.3241 17.8176 29.3329 16.0667C29.3416 14.3157 29.0054 12.5802 28.3434 10.9592C27.6814 9.33813 26.7067 7.86336 25.4747 6.61905C24.2428 5.37475 22.7779 4.38527 21.1636 3.70712C19.5492 3.02897 17.8171 2.67543 16.0662 2.66667ZM24.1635 19.6027C24.1672 20.2008 24.0522 20.7938 23.825 21.3472C23.5979 21.9006 23.2631 22.4034 22.8402 22.8264C22.4173 23.2495 21.9146 23.5843 21.3613 23.8117C20.808 24.039 20.215 24.1542 19.6168 24.1507H12.5182C11.92 24.1544 11.327 24.0393 10.7737 23.8122C10.2203 23.585 9.71749 23.2503 9.29445 22.8273C8.8714 22.4044 8.53651 21.9017 8.30919 21.3484C8.08187 20.7951 7.96664 20.2022 7.97018 19.604V12.504C7.96647 11.9058 8.08152 11.3129 8.30868 10.7595C8.53584 10.2061 8.87058 9.70332 9.2935 9.28027C9.71643 8.85723 10.2191 8.52234 10.7724 8.29501C11.3257 8.06769 11.9187 7.95246 12.5168 7.956H19.6168C20.2149 7.95247 20.8077 8.06765 21.361 8.29489C21.9142 8.52213 22.4168 8.8569 22.8397 9.2798C23.2626 9.70271 23.5974 10.2053 23.8246 10.7586C24.0519 11.3118 24.1671 11.9046 24.1635 12.5027V19.6027Z" fill="#FAFAFA"/>
</svg>
