<svg width="48" height="48" viewBox="0 0 48 48" fill="none" xmlns="http://www.w3.org/2000/svg">
<g clip-path="url(#clip0_207_631)">
<path d="M0.0900347 0.0449219C0.0900347 0.134978 0.0900347 0.225051 0.0900347 0.315107C0.0900347 16.075 0.0900347 31.8348 0.0900347 47.5947C0.0900347 47.6847 0.0900347 47.7748 0.0900347 47.8648C0.180091 47.8648 0.270164 47.8648 0.360221 47.8648C16.1201 47.8648 31.88 47.8648 47.6399 47.8648C47.73 47.8648 47.8201 47.8648 47.9102 47.8648C47.8201 47.8648 47.8201 47.8648 47.73 47.8648C31.79 47.8648 15.94 47.8648 0 47.8648C0 47.7748 0 47.6847 0 47.5947C0 31.7448 0 15.9849 0 0.134984C0.0900567 0.22504 0.0900347 0.134978 0.0900347 0.0449219Z" fill="white"/>
<path d="M24.0447 26.7914C23.8646 26.5213 23.6844 26.2511 23.5043 26.071C23.1441 25.5307 22.6938 24.9002 22.3336 24.3599C22.2435 24.2699 22.1535 24.1798 22.0634 24.1798C18.3711 23.1892 16.0296 20.9378 15.2191 17.2455C14.4086 13.6432 15.5794 10.5813 18.3711 8.23984C19.6319 7.15916 21.0728 6.52876 22.6938 6.34865C25.3955 5.98842 27.8271 6.61884 29.8984 8.41996C31.5194 9.77081 32.51 11.4819 32.9603 13.5532C33.5006 16.3449 32.8702 18.9565 31.0691 21.2079C29.8083 22.829 28.0972 23.8196 26.116 24.2699C26.0259 24.2699 25.8458 24.3599 25.8458 24.45C25.3055 25.1704 24.7651 25.9809 24.2248 26.7014C24.1347 26.6113 24.1347 26.7014 24.0447 26.7914ZM27.0166 19.4068C26.8365 18.3261 26.6563 17.2455 26.4762 16.1648C26.4762 15.9847 26.4762 15.8946 26.5663 15.8046C27.1967 15.1742 27.8271 14.5438 28.3674 13.9134C28.5475 13.7333 28.6376 13.6432 28.8177 13.4631C28.7276 13.4631 28.6376 13.4631 28.6376 13.3731C27.6469 13.1929 26.6563 13.1029 25.7557 12.9228C25.5756 12.9228 25.5756 12.8327 25.4856 12.7427C25.2154 12.1123 24.9452 11.4819 24.585 10.9415C24.4049 10.5813 24.2248 10.2211 24.0447 9.77081C23.9546 9.86086 23.9546 9.9509 23.9546 9.9509C23.5043 10.8515 23.0541 11.752 22.6938 12.7427C22.6938 12.8327 22.6038 12.9228 22.5137 12.9228C21.7032 13.0128 20.8927 13.1929 20.0822 13.283C19.812 13.283 19.6319 13.3731 19.2717 13.3731C19.3617 13.4631 19.4518 13.5532 19.4518 13.5532C20.1722 14.2736 20.8026 14.9941 21.5231 15.6245C21.6132 15.7145 21.6132 15.8046 21.6132 15.8946C21.5231 16.525 21.433 17.2455 21.2529 17.8759C21.1629 18.3262 21.0728 18.7764 21.0728 19.2267C21.1629 19.1367 21.2529 19.1367 21.2529 19.1367C22.1535 18.6864 22.964 18.146 23.8646 17.6957C23.9546 17.6057 24.0447 17.6057 24.2248 17.6957C24.495 17.8759 24.8552 18.056 25.1254 18.2361C25.7558 18.7764 26.3862 19.0466 27.0166 19.4068Z" fill="#DF3F53"/>
<path d="M6.48438 40.6602C18.1917 40.6602 29.8991 40.6602 41.6065 40.6602C41.6065 41.1104 41.6065 41.4707 41.6065 41.9209C41.5164 41.9209 41.4263 41.9209 41.3363 41.9209C29.809 41.9209 18.2818 41.9209 6.75456 41.9209C6.48439 41.9209 6.48438 41.9209 6.48438 41.6508C6.48437 41.2906 6.48438 41.0204 6.48438 40.6602Z" stroke="#DF3F53" stroke-width="0.8" stroke-miterlimit="10"/>
<path d="M12.3379 27.332C15.5799 30.484 19.5424 32.1951 24.0452 32.1951C28.5481 32.1951 32.5106 30.5741 35.7526 27.332C35.9327 27.6022 36.1128 27.8724 36.2929 28.1425C36.2929 28.1425 36.2929 28.1425 36.2929 28.2326C35.1222 29.4934 33.8614 30.6641 32.4205 31.5647C30.6194 32.6453 28.7282 33.4558 26.6569 33.8161C25.5762 33.9962 24.5856 34.0863 23.5049 34.0863C19.5424 33.9061 16.1202 32.4652 13.2384 29.7635C12.7882 29.3133 12.3379 28.863 11.7975 28.3227C11.7075 28.2326 11.7075 28.1425 11.7975 28.0525C11.9776 27.7823 12.1578 27.6022 12.3379 27.332Z" stroke="#DF3F53" stroke-width="0.8" stroke-miterlimit="10"/>
<path d="M11.3469 26.161C11.3469 27.1516 10.5364 27.9621 9.54576 27.9621C8.55514 27.9621 7.74463 27.1516 7.74463 26.161C7.74463 25.1704 8.55514 24.3599 9.63582 24.3599C10.5364 24.2698 11.3469 25.0803 11.3469 26.161Z" stroke="#DF3F53" stroke-width="0.8" stroke-miterlimit="10"/>
<path d="M38.5443 24.27C39.5349 24.27 40.3454 25.0805 40.3454 26.0711C40.3454 27.0618 39.5349 27.8723 38.5443 27.8723C37.5537 27.8723 36.7432 27.0618 36.7432 26.0711C36.7432 25.0805 37.5537 24.27 38.5443 24.27Z" stroke="#DF3F53" stroke-width="0.8" stroke-miterlimit="10"/>
<path d="M37.9141 29.1333C38.3643 29.1333 38.7246 29.1333 39.1749 29.1333C39.1749 29.2234 39.1749 29.3134 39.1749 29.4035C39.1749 31.925 39.1749 34.3566 39.1749 36.8781C39.1749 37.1483 39.1749 37.1483 38.9047 37.1483C38.6345 37.1483 38.3643 37.1483 38.1842 37.1483C38.0041 37.1483 37.9141 37.0583 37.9141 36.8781C37.9141 35.2571 37.9141 33.5461 37.9141 31.9251C37.9141 31.1145 37.9141 30.304 37.9141 29.4935C37.9141 29.3134 37.9141 29.2234 37.9141 29.1333Z" stroke="#DF3F53" stroke-width="0.8" stroke-miterlimit="10"/>
<path d="M8.91553 29.1333C9.36581 29.1333 9.72603 29.1333 10.1763 29.1333C10.1763 29.2234 10.1763 29.2233 10.1763 29.3134C10.1763 31.835 10.1763 34.3566 10.1763 36.7881C10.1763 36.9682 10.1763 37.0582 9.90616 37.0582C9.63599 37.0582 9.36579 37.0582 9.09562 37.0582C8.91551 37.0582 8.91553 36.9682 8.91553 36.8781C8.91553 34.3566 8.91553 31.835 8.91553 29.2234V29.1333Z" stroke="#DF3F53" stroke-width="0.8" stroke-miterlimit="10"/>
<path d="M36.7432 39.3995C36.7432 39.0392 36.7432 38.589 36.7432 38.1387C36.8332 38.1387 36.9233 38.1387 36.9233 38.1387C38.004 38.1387 39.0846 38.1387 40.1653 38.1387C40.3454 38.1387 40.4355 38.2287 40.4355 38.4088C40.4355 38.679 40.4355 38.9492 40.4355 39.2193C40.4355 39.3094 40.4355 39.3995 40.2554 39.3995C39.0847 39.4895 38.004 39.4895 36.7432 39.3995ZM36.7432 39.3995C36.7432 39.4895 36.8332 39.4895 36.7432 39.3995Z" stroke="#DF3F53" stroke-width="0.8" stroke-miterlimit="10"/>
<path d="M11.3469 38.229C11.3469 38.5892 11.3469 39.0395 11.3469 39.3997C11.2568 39.3997 11.2569 39.3997 11.1668 39.3997C10.0861 39.3997 9.00543 39.3997 7.92475 39.3997C7.74464 39.3997 7.74463 39.3097 7.74463 39.2196C7.74463 38.9494 7.74463 38.6793 7.74463 38.4091C7.74463 38.319 7.74464 38.229 7.92475 38.229C9.00543 38.229 10.0861 38.229 11.3469 38.229ZM11.3469 38.229C11.2568 38.229 11.2568 38.229 11.3469 38.229Z" stroke="#DF3F53" stroke-width="0.8" stroke-miterlimit="10"/>
</g>
<defs>
<clipPath id="clip0_207_631">
<rect width="48" height="48" fill="white"/>
</clipPath>
</defs>
</svg>
