<svg width="48" height="48" viewBox="0 0 48 48" fill="none" xmlns="http://www.w3.org/2000/svg">
<path d="M23.9741 15.986C21.7773 15.986 19.8967 16.7682 18.3322 18.3327C16.7678 19.8971 15.9856 21.7778 15.9856 23.9747C15.9856 25.6524 16.4623 27.1682 17.4156 28.5223C18.3702 29.8764 19.6284 30.8517 21.1901 31.4482C21.4404 31.5614 21.6295 31.7478 21.7573 32.0074C21.8825 32.2671 21.8931 32.5227 21.7893 32.7744C21.6841 33.01 21.5197 33.1931 21.296 33.3236C21.0723 33.4541 20.8433 33.4667 20.609 33.3615C18.6145 32.6452 17.0128 31.4329 15.8039 29.7246C14.595 28.0164 13.9898 26.0997 13.9885 23.9747C13.9885 21.2093 14.9618 18.8539 16.9083 16.9087C18.8548 14.9634 21.2101 13.9901 23.9741 13.9888C26.0817 13.9888 27.9977 14.5939 29.7218 15.8042C31.446 17.0132 32.6629 18.6103 33.3726 20.5955C33.4698 20.8311 33.4485 21.0668 33.3087 21.3025C33.1689 21.5382 32.9811 21.7046 32.7455 21.8018C32.4699 21.9056 32.2063 21.8923 31.9546 21.7618C31.7043 21.6314 31.5226 21.4283 31.4094 21.1527C30.8129 19.5909 29.8377 18.3393 28.4836 17.398C27.1296 16.4566 25.6264 15.986 23.9741 15.986ZM23.9741 7.99719C19.5139 7.99719 15.736 9.54501 12.6404 12.6407C9.54489 15.7363 7.99712 19.5143 7.99712 23.9747C7.99712 28.4245 9.49364 32.1725 12.4867 35.2189C15.4797 38.268 19.1717 39.8384 23.5627 39.9303C23.8476 39.9449 24.0893 40.0535 24.2877 40.2558C24.486 40.4582 24.5812 40.7012 24.5733 40.9848C24.5653 41.2684 24.4661 41.5107 24.2757 41.7118C24.0853 41.9128 23.8476 42.0087 23.5627 41.9994C21.069 41.9608 18.7563 41.4395 16.6247 40.4356C14.4944 39.4317 12.6398 38.1062 11.0607 36.4592C9.48165 34.8122 8.24344 32.9108 7.34606 30.7552C6.44869 28.5996 6 26.3394 6 23.9747C6 21.4929 6.47265 19.1588 7.41796 16.9726C8.36459 14.7863 9.64741 12.8843 11.2664 11.2666C12.8841 9.64621 14.786 8.36334 16.9722 7.41801C19.1584 6.47267 21.4924 6 23.9741 6C28.714 6 32.8753 7.67232 36.4581 11.0169C40.041 14.3616 41.8876 18.531 41.9982 23.5254C42.0141 23.8023 41.9263 24.042 41.7345 24.2443C41.5441 24.4494 41.3072 24.5559 41.0236 24.5639C40.74 24.5719 40.4883 24.472 40.2687 24.2643C40.049 24.0566 39.9318 23.8103 39.9172 23.5254C39.8013 19.3259 38.1903 15.6877 35.0841 12.6107C31.9766 9.53503 28.2733 7.99719 23.9741 7.99719ZM38.4373 40.4915L29.8896 31.9136L28.8511 35.0751C28.7113 35.4639 28.4463 35.657 28.0562 35.6543C27.6675 35.649 27.4158 35.4519 27.3013 35.0631L24.4075 25.4267C24.3263 25.1125 24.3968 24.8435 24.6192 24.6198C24.8429 24.3975 25.1118 24.3269 25.426 24.4081L35.0621 27.302C35.4509 27.4166 35.6473 27.6682 35.6513 28.057C35.6553 28.4458 35.4622 28.7107 35.0721 28.8519L31.9127 29.8904L40.5003 38.4384C40.7852 38.7233 40.9277 39.0655 40.9277 39.4649C40.9277 39.8644 40.7852 40.2059 40.5003 40.4895C40.2154 40.7731 39.8719 40.9156 39.4698 40.9169C39.0677 40.9182 38.7235 40.7758 38.4373 40.4895" fill="#DF3F53"/>
</svg>
