<svg width="21" height="20" viewBox="0 0 21 20" fill="none" xmlns="http://www.w3.org/2000/svg">
<path d="M8.25 1.50112C8.44891 1.50112 8.63968 1.58014 8.78033 1.72079C8.92098 1.86145 9 2.05221 9 2.25112C9 2.45004 8.92098 2.6408 8.78033 2.78145C8.63968 2.92211 8.44891 3.00112 8.25 3.00112H3.75C3.15326 3.00112 2.58097 3.23818 2.15901 3.66013C1.73705 4.08209 1.5 4.65439 1.5 5.25112V15.7511C1.5 16.3479 1.73705 16.9202 2.15901 17.3421C2.58097 17.7641 3.15326 18.0011 3.75 18.0011H14.25C14.8467 18.0011 15.419 17.7641 15.841 17.3421C16.2629 16.9202 16.5 16.3479 16.5 15.7511V12.7511C16.5 12.5522 16.579 12.3614 16.7197 12.2208C16.8603 12.0801 17.0511 12.0011 17.25 12.0011C17.4489 12.0011 17.6397 12.0801 17.7803 12.2208C17.921 12.3614 18 12.5522 18 12.7511V15.7511C18 16.7457 17.6049 17.6995 16.9016 18.4028C16.1984 19.106 15.2446 19.5011 14.25 19.5011H3.75C2.75544 19.5011 1.80161 19.106 1.09835 18.4028C0.395088 17.6995 0 16.7457 0 15.7511V5.25112C0 4.25656 0.395088 3.30273 1.09835 2.59947C1.80161 1.89621 2.75544 1.50112 3.75 1.50112H8.25ZM13.17 0.0761235C13.2963 0.014438 13.4373 -0.0105346 13.5771 0.00405181C13.7168 0.0186382 13.8497 0.0721971 13.9605 0.158624L20.7105 5.40862C20.8008 5.47873 20.8739 5.56856 20.9242 5.67125C20.9745 5.77395 21.0007 5.88678 21.0007 6.00112C21.0007 6.11547 20.9745 6.2283 20.9242 6.33099C20.8739 6.43368 20.8008 6.52352 20.7105 6.59362L13.9605 11.8436C13.8496 11.9299 13.7168 11.9832 13.5771 11.9977C13.4374 12.0121 13.2964 11.987 13.1703 11.9253C13.0441 11.8635 12.9379 11.7676 12.8635 11.6484C12.7892 11.5292 12.7499 11.3916 12.75 11.2511V9.03862C9.402 9.38362 7.314 11.9981 6.156 14.1371L5.9205 14.5871C5.84483 14.7381 5.72041 14.8591 5.56739 14.9306C5.41437 15.0021 5.24171 15.0198 5.07736 14.9809C4.91301 14.9421 4.76659 14.8489 4.66181 14.7164C4.55702 14.5839 4.50001 14.42 4.5 14.2511C4.5 11.1371 5.277 8.33962 6.8055 6.30112C8.2125 4.42612 10.2345 3.23062 12.75 3.03262V0.751124C12.7497 0.610559 12.7889 0.472744 12.8632 0.353396C12.9375 0.234048 13.0438 0.137972 13.17 0.0761235Z" fill="#DF3F53"/>
</svg>
