<svg width="48" height="48" viewBox="0 0 48 48" fill="none" xmlns="http://www.w3.org/2000/svg">
<path d="M16.1405 20.7243C15.7439 19.7946 15.1433 18.966 14.3833 18.2996C13.6233 17.6333 12.7232 17.1464 11.7496 16.8748C10.776 16.6032 9.75379 16.5539 8.75859 16.7306C7.76338 16.9072 6.82062 17.3053 6 17.8954M31.8595 20.7243C32.2561 19.7946 32.8567 18.966 33.6167 18.2996C34.3767 17.6333 35.2768 17.1464 36.2504 16.8748C37.224 16.6032 38.2462 16.5539 39.2414 16.7306C40.2366 16.9072 41.1794 17.3053 42 17.8954M6 11.5675C6 12.6112 6.41459 13.6121 7.15257 14.3501C7.89056 15.0881 8.89147 15.5027 9.93513 15.5027C10.9788 15.5027 11.9797 15.0881 12.7177 14.3501C13.4557 13.6121 13.8703 12.6112 13.8703 11.5675C13.8703 10.5239 13.4557 9.52294 12.7177 8.78496C11.9797 8.04697 10.9788 7.63238 9.93513 7.63238C8.89147 7.63238 7.89056 8.04697 7.15257 8.78496C6.41459 9.52294 6 10.5239 6 11.5675ZM34.1297 11.5675C34.1297 12.6112 34.5443 13.6121 35.2823 14.3501C36.0203 15.0881 37.0212 15.5027 38.0649 15.5027C39.1085 15.5027 40.1094 15.0881 40.8474 14.3501C41.5854 13.6121 42 12.6112 42 11.5675C42 10.5239 41.5854 9.52294 40.8474 8.78496C40.1094 8.04697 39.1085 7.63238 38.0649 7.63238C37.0212 7.63238 36.0203 8.04697 35.2823 8.78496C34.5443 9.52294 34.1297 10.5239 34.1297 11.5675ZM17.9874 9.73869C17.9874 10.5283 18.1429 11.3101 18.4451 12.0396C18.7472 12.7691 19.1901 13.4319 19.7484 13.9902C20.3068 14.5486 20.9696 14.9915 21.6991 15.2936C22.4286 15.5958 23.2104 15.7513 24 15.7513C24.7896 15.7513 25.5714 15.5958 26.3009 15.2936C27.0304 14.9915 27.6932 14.5486 28.2516 13.9902C28.8099 13.4319 29.2528 12.7691 29.5549 12.0396C29.8571 11.3101 30.0126 10.5283 30.0126 9.73869C30.0126 8.14404 29.3791 6.61471 28.2516 5.48713C27.124 4.35954 25.5946 3.72607 24 3.72607C22.4054 3.72607 20.876 4.35954 19.7484 5.48713C18.6209 6.61471 17.9874 8.14404 17.9874 9.73869Z" stroke="#DF3F53" stroke-width="1.7" stroke-linecap="round" stroke-linejoin="round"/>
<path d="M34.4017 23.0233C33.0834 21.5752 31.4773 20.4184 29.6861 19.6268C27.895 18.8352 25.9582 18.4263 23.9999 18.4263C22.0417 18.4263 20.1049 18.8352 18.3138 19.6268C16.5226 20.4184 14.9165 21.5752 13.5981 23.0233M31.1261 27.3404C31.0963 29.211 30.3324 30.9949 28.999 32.3072C27.6657 33.6195 25.8699 34.355 23.999 34.355C22.1282 34.355 20.3324 33.6195 18.9991 32.3072C17.6657 30.9949 16.9018 29.211 16.872 27.3404" stroke="#DF3F53" stroke-width="1.7" stroke-linecap="round" stroke-linejoin="round"/>
<path d="M40.9263 27.3333V30.0125L37.8632 30.6251C37.5107 32.1105 36.9186 33.5284 36.1101 34.8233L37.856 37.4251L34.0722 41.2089L31.4722 39.463C30.1758 40.276 28.7553 40.8718 27.2668 41.2269L26.6614 44.2738H21.3281L20.7209 41.2269C19.233 40.8716 17.8131 40.2758 16.5173 39.463L13.9101 41.2017L10.1263 37.4179L11.8722 34.8161C11.0631 33.5214 10.4703 32.1034 10.1173 30.6179L7.0542 30.0053V27.3333" stroke="#DF3F53" stroke-width="1.7" stroke-linecap="round" stroke-linejoin="round"/>
</svg>
