<svg width="16" height="22" viewBox="0 0 16 22" fill="none" xmlns="http://www.w3.org/2000/svg">
<path d="M10.2509 7.75C10.2509 8.41304 9.98746 9.04893 9.51862 9.51777C9.04978 9.98661 8.4139 10.25 7.75085 10.25C7.08781 10.25 6.45193 9.98661 5.98309 9.51777C5.51425 9.04893 5.25085 8.41304 5.25085 7.75C5.25085 7.08696 5.51425 6.45107 5.98309 5.98223C6.45193 5.51339 7.08781 5.25 7.75085 5.25C8.4139 5.25 9.04978 5.51339 9.51862 5.98223C9.98746 6.45107 10.2509 7.08696 10.2509 7.75Z" stroke="#DF3F53" stroke-width="1.5"/>
<path d="M9.00785 16.244C8.67007 16.569 8.21957 16.7505 7.75085 16.7505C7.28212 16.7505 6.83162 16.569 6.49385 16.244C3.40485 13.251 -0.734154 9.908 1.28385 5.054C2.37685 2.429 4.99685 0.75 7.75085 0.75C10.5048 0.75 13.1258 2.43 14.2178 5.054C16.2338 9.901 12.1048 13.261 9.00785 16.244Z" stroke="#DF3F53" stroke-width="1.5"/>
<path d="M13.7509 18.75C13.7509 19.855 11.0649 20.75 7.75085 20.75C4.43685 20.75 1.75085 19.855 1.75085 18.75" stroke="#DF3F53" stroke-width="1.5" stroke-linecap="round"/>
</svg>
