<svg width="48" height="45" viewBox="0 0 48 45" fill="none" xmlns="http://www.w3.org/2000/svg">
<path d="M27.6 7H20.4C13.6122 7 10.2174 7 8.1096 9.1096C6.0018 11.2192 6 14.6122 6 21.4V23.2C6 29.9878 6 33.3826 8.1096 35.4904C10.2192 37.5982 13.6122 37.6 20.4 37.6H27.6C34.3878 37.6 37.7826 37.6 39.8904 35.4904C41.9982 33.3808 42 29.9878 42 23.2V21.4C42 14.6122 42 11.2174 39.8904 9.1096C37.7808 7.0018 34.3878 7 27.6 7Z" stroke="#DF3F53" stroke-width="2" stroke-linejoin="round"/>
<path d="M11.3999 29.5C13.2647 24.8542 20.2127 24.55 22.1999 29.5" stroke="#DF3F53" stroke-width="2" stroke-linecap="round"/>
<path d="M19.9499 18.2501C19.9499 19.0855 19.618 19.8867 19.0273 20.4775C18.4365 21.0682 17.6353 21.4001 16.7999 21.4001C15.9645 21.4001 15.1633 21.0682 14.5725 20.4775C13.9818 19.8867 13.6499 19.0855 13.6499 18.2501C13.6499 17.4147 13.9818 16.6135 14.5725 16.0227C15.1633 15.432 15.9645 15.1001 16.7999 15.1001C17.6353 15.1001 18.4365 15.432 19.0273 16.0227C19.618 16.6135 19.9499 17.4147 19.9499 18.2501Z" stroke="#DF3F53" stroke-width="2"/>
<path d="M27.6001 16H36.6001M27.6001 22.3H36.6001M27.6001 28.6H32.1001" stroke="#DF3F53" stroke-width="2" stroke-linecap="round" stroke-linejoin="round"/>
</svg>
