<svg width="48" height="48" viewBox="0 0 48 48" fill="none" xmlns="http://www.w3.org/2000/svg">
<path d="M23.793 6.50903L32.5 15.2161V20.1438C30.5774 20.218 28.6937 20.7224 26.9883 21.6223C25.1352 22.6001 23.5483 24.0154 22.3662 25.7454C21.1842 27.4752 20.4427 29.4675 20.2051 31.5491C19.9949 33.3906 20.1856 35.2526 20.7598 37.009H6.5V6.50903H23.793Z" stroke="#DF3F53"/>
<path fill-rule="evenodd" clip-rule="evenodd" d="M24.1575 31.3148C24.5804 29.1159 25.8076 27.1535 27.5995 25.8108C29.3915 24.4681 31.6195 23.8414 33.8487 24.053C36.0779 24.2647 38.1482 25.2996 39.6554 26.9556C41.1626 28.6116 41.9985 30.7699 42 33.0091C41.9975 34.2612 41.7337 35.499 41.2256 36.6434C40.7175 37.7878 39.9762 38.8136 39.0491 39.6551C38.1219 40.4967 37.0294 41.1355 35.8413 41.5308C34.6532 41.9261 33.3957 42.0692 32.1492 41.9508C30.9027 41.8324 29.6946 41.4553 28.6022 40.8434C27.5097 40.2316 26.557 39.3985 25.8048 38.3975C25.0526 37.3965 24.5176 36.2495 24.234 35.0299C23.9503 33.8104 23.9243 32.545 24.1575 31.3148ZM38.625 30.8963L36.24 28.5091L32.01 32.7368L29.76 30.4868L27.375 32.8718L32.01 37.5091L38.625 30.8963Z" fill="#DF3F53"/>
</svg>
