<svg width="49" height="48" viewBox="0 0 49 48" fill="none" xmlns="http://www.w3.org/2000/svg">
<path d="M0.0999756 0C0.0999756 0.1 0.0999756 0.199988 0.0999756 0.299988C0.0999756 16.1 0.0999756 31.9 0.0999756 47.6C0.0999756 47.7 0.0999756 47.8 0.0999756 47.9C0.199976 47.9 0.299963 47.9 0.399963 47.9C16.2 47.9 32 47.9 47.7 47.9C47.7999 47.9 47.9 47.9 48 47.9C47.9 47.9 47.9 47.9 47.8 47.9C31.9 47.9 15.9 47.9 0 47.9C0 47.8 0 47.7 0 47.6C0 31.8 0 15.9 0 0.100006C0 0.100006 0.0999756 0.1 0.0999756 0Z" fill="white"/>
<path d="M31.0998 17.4C30.6998 17.4 30.2998 17.4 29.9998 17.5C28.5998 17.8 27.6998 19.1 27.8998 20.5C27.8998 20.6 27.8998 20.7 27.7998 20.8C26.9998 21.6 26.1998 22.3 25.1998 22.9C23.6998 24 21.9998 24.8 20.2998 25.5C20.1998 25.5 20.0998 25.5 19.9998 25.5C19.7998 25.5 19.4998 25.4 19.2998 25.5C18.1998 25.8 17.1998 26 16.0998 26.4C14.2998 27 13.2998 28.2 12.8998 30.1C12.8998 30.2 12.8998 30.4 12.7998 30.5C12.7998 30.6 12.7998 30.8 12.7998 30.9C12.6998 30.9 12.6998 30.9 12.5998 30.9C11.1998 30.9 9.79978 30.9 8.39978 30.9C7.39978 30.9 6.4998 30.2 6.2998 29.2C6.2998 29.1 6.2998 28.9 6.2998 28.8C6.2998 23.9 6.2998 19.1 6.2998 14.2C6.2998 14 6.39982 14 6.49982 14C14.5998 14 22.6998 14 30.7998 14C30.9998 14 31.0998 14.1 30.9998 14.3C30.9998 15.3 30.9998 16.3 30.9998 17.3C31.0998 17.3 31.0998 17.4 31.0998 17.4ZM10.0998 16C9.99979 16.1 10.0998 16.1 10.0998 16C10.0998 16.8 10.0998 17.6 10.0998 18.3C10.0998 18.5 10.1998 18.4 10.2998 18.4C10.9998 18.4 11.6998 18.4 12.3998 18.4C12.5998 18.4 12.5998 18.3 12.5998 18.2C12.5998 17.5 12.5998 16.8 12.5998 16.1C12.5998 16 12.5998 16 12.5998 15.9C11.6998 16 10.8998 16 10.0998 16ZM17.4998 16C16.6998 16 15.7998 16 14.9998 16C14.9998 16.8 14.9998 17.6 14.9998 18.3L15.0998 18.4C15.7998 18.4 16.5998 18.4 17.2998 18.4L17.3998 18.3C17.4998 17.6 17.4998 16.8 17.4998 16ZM19.8998 16C19.8998 16.8 19.8998 17.6 19.8998 18.3C19.8998 18.5 19.9998 18.4 20.0998 18.4C20.7998 18.4 21.4998 18.4 22.1998 18.4C22.3998 18.4 22.3998 18.4 22.3998 18.2C22.3998 17.5 22.3998 16.8 22.3998 16.2C22.3998 16.1 22.3998 16.1 22.3998 16C21.5998 16 20.7998 16 19.8998 16ZM12.4998 23.4C12.4998 22.6 12.4998 21.8 12.4998 21.1C12.4998 20.9 12.3998 21 12.2998 21C11.5998 21 10.8998 21 10.1998 21C9.99977 21 9.99982 21.1 9.99982 21.2C9.99982 21.9 9.99982 22.6 9.99982 23.3C9.99982 23.4 9.99982 23.4 9.99982 23.5C10.8998 23.4 11.6998 23.4 12.4998 23.4ZM17.4998 23.4C17.4998 22.6 17.4998 21.8 17.4998 21.1C17.4998 21 17.3998 21 17.2998 21C16.5998 21 15.8998 21 15.1998 21C14.9998 21 14.9998 21.1 14.9998 21.2C14.9998 21.9 14.9998 22.5 14.9998 23.2C14.9998 23.3 14.9998 23.4 14.9998 23.5C15.7998 23.4 16.5998 23.4 17.4998 23.4ZM22.3998 23.4C22.3998 22.6 22.3998 21.8 22.3998 21.1C22.3998 21 22.2998 20.9 22.1998 20.9C21.4998 20.9 20.7998 20.9 20.0998 20.9C19.9998 20.9 19.8998 21 19.8998 21.1C19.8998 21.8 19.8998 22.5 19.8998 23.1C19.8998 23.2 19.8998 23.2 19.8998 23.3C20.7998 23.4 21.5998 23.4 22.3998 23.4ZM10.0998 25.9C10.0998 26.7 10.0998 27.5 10.0998 28.2C10.0998 28.3 10.1998 28.3 10.2998 28.3C10.9998 28.3 11.6998 28.3 12.3998 28.3C12.4998 28.3 12.5998 28.3 12.5998 28.1C12.5998 27.4 12.5998 26.7 12.5998 26C12.5998 25.9 12.5998 25.9 12.5998 25.8C11.6998 25.9 10.8998 25.9 10.0998 25.9ZM24.8998 16C24.8998 16.8 24.8998 17.6 24.8998 18.3L24.9998 18.4C25.6998 18.4 26.3998 18.4 27.0998 18.4C27.1998 18.4 27.2998 18.3 27.2998 18.2C27.2998 17.5 27.2998 16.8 27.2998 16.1C27.2998 16 27.1998 15.9 27.0998 15.9C26.7998 15.9 26.5998 15.9 26.2998 15.9C25.8998 16 25.3998 16 24.8998 16Z" fill="#DF3F53"/>
<path d="M28.2002 21.8C29.2002 25.6 30.3002 29.5 31.3002 33.3C30.9002 33.2 30.6002 33.1001 30.2002 33.1001C29.5002 33.0001 28.7002 32.9 28.0002 32.8C26.9002 32.7 25.9002 32.7 24.8002 32.8C24.1002 32.8 23.4002 32.9001 22.7002 33.0001C22.5002 33.0001 22.5002 33 22.4002 32.8C21.9002 30.7 21.3002 28.7001 20.7002 26.6001C20.7002 26.4001 20.7002 26.3 20.9002 26.3C22.9002 25.4 24.9002 24.4001 26.6002 23.0001C27.0002 22.7001 27.4002 22.3001 27.9002 21.9001C28.1002 21.9001 28.1002 21.8 28.2002 21.8Z" fill="#DF3F53"/>
<path d="M21.1002 8.90005C21.6002 8.90005 22.0002 8.90005 22.4002 8.90005C22.6002 8.90005 22.8002 8.90005 23.0002 8.90005C23.1002 8.90005 23.2001 8.90007 23.2001 9.10007C23.2001 9.60007 23.2001 10.0001 23.2001 10.5001C23.2001 11.5001 23.9002 12.2001 24.9002 12.2001C25.4002 12.2001 26.0002 12.2001 26.5002 12.1001C27.3002 12.0001 27.8002 11.3001 27.8002 10.5001C27.8002 10.0001 27.8002 9.50006 27.8002 9.00006C27.8002 8.80006 27.8002 8.80005 28.0002 8.80005C28.5002 8.80005 28.9002 8.80005 29.4002 8.90005C30.3002 9.10005 31.0002 9.90005 31.1002 10.9001C31.1002 11.5001 31.1002 12.2 31.1002 12.8C31.1002 12.9 31.1002 13.0001 30.9002 13.0001C30.8002 13.0001 30.8001 13.0001 30.7001 13.0001C22.7001 13.0001 14.6002 13.0001 6.60016 13.0001C6.20016 13.0001 6.30018 13.0001 6.30018 12.7001C6.30018 12.1001 6.30018 11.5001 6.30018 10.9001C6.30018 9.90005 7.10016 9.00005 8.10016 8.90005C8.50016 8.90005 9.00019 8.90005 9.50019 8.90005C9.50019 9.00005 9.50019 9.10007 9.50019 9.20007C9.50019 9.70007 9.50019 10.1001 9.50019 10.6001C9.50019 11.5001 10.1002 12.1001 11.0002 12.2001C11.6002 12.3001 12.2002 12.3001 12.8002 12.2001C13.6002 12.1001 14.2001 11.4001 14.2001 10.6001C14.2001 10.1001 14.2001 9.50006 14.2001 9.00006C14.9001 9.00006 15.6002 9.00006 16.4002 9.00006C16.4002 9.10006 16.4002 9.20005 16.4002 9.30005C16.4002 9.80005 16.4002 10.4001 16.4002 10.9001C16.5002 11.7001 17.2002 12.3 18.0002 12.3C18.5002 12.3 19.0002 12.3 19.5002 12.3C20.4002 12.2 21.0002 11.5001 21.0002 10.5001C21.1002 9.90006 21.1002 9.40005 21.1002 8.90005Z" fill="#DF3F53"/>
<path d="M30.5 18.3999C31.3 18.3999 31.9 18.7999 32.1 19.5999C32.4 20.6999 32.7 21.7999 33 22.9999C33.9 26.3999 34.7999 29.6999 35.6999 33.0999C35.9999 34.2999 35.2 35.2999 34 35.2999C33.3 35.2999 32.5999 34.7999 32.3999 34.0999C31.8999 32.3999 31.5 30.5999 31 28.8999C30.3 26.1999 29.6 23.4999 28.8 20.7999C28.5 19.6999 29.2 18.7999 30.1 18.5999C30.3 18.3999 30.4 18.3999 30.5 18.3999Z" fill="#DF3F53"/>
<path d="M17.5999 34.4C15.7999 34.4 14.1999 33.0001 13.9999 31.2001C13.7999 29.4001 14.8999 27.7001 16.6999 27.2001C17.6999 26.9001 18.5999 26.7 19.5999 26.4C19.8999 26.3 19.9999 26.4001 20.0999 26.7001C20.4999 28.2001 20.8999 29.7 21.2999 31.3C21.4999 31.9 21.5999 32.5001 21.7999 33.1001C21.8999 33.4001 21.7999 33.5001 21.4999 33.6001C20.4999 33.9001 19.4999 34.1 18.3999 34.4C17.9999 34.4 17.7999 34.4 17.5999 34.4Z" fill="#DF3F53"/>
<path d="M19.5 35.0999C20.4 34.8999 21.2 34.5999 22.1 34.3999C22.2 34.5999 22.3 34.7999 22.4 35.0999C23 36.6999 23.6 38.1999 24.3 39.7999C24.5 40.2999 24.4 40.6999 23.9 40.8999C23.6 41.0999 23.3 41.1999 23 41.3999C22.6 41.5999 22.1 41.4999 22 40.9999C21 38.9999 20.3 37.0999 19.5 35.0999Z" fill="#DF3F53"/>
<path d="M26.9002 8.89999C26.9002 9.39999 26.9002 9.89999 26.9002 10.4C26.9002 11 26.6002 11.3 26.0002 11.3C25.6002 11.3 25.2002 11.3 24.8002 11.3C24.4002 11.3 24.2002 11 24.2002 10.6C24.2002 10.1 24.2002 9.70001 24.2002 9.20001C24.2002 8.60001 24.2002 7.99999 24.2002 7.39999C24.2002 6.79999 24.5002 6.5 25.1002 6.5C25.4002 6.5 25.8002 6.5 26.1002 6.5C26.6002 6.5 26.9002 6.79999 26.9002 7.29999C26.9002 7.89999 26.9002 8.39999 26.9002 8.89999Z" fill="white" stroke="#DF3F53" stroke-width="0.5" stroke-miterlimit="10"/>
<path d="M13.2 8.90009C13.2 9.40009 13.2 9.90009 13.2 10.5001C13.2 11.0001 13 11.3001 12.5 11.3001C12 11.3001 11.6 11.3001 11.1 11.3001C10.7 11.3001 10.5 11.0001 10.5 10.6001C10.5 9.5001 10.5 8.40008 10.5 7.30008C10.5 6.90008 10.8 6.6001 11.2 6.6001C11.6 6.6001 12 6.6001 12.4 6.6001C12.8 6.6001 13.1 6.90008 13.1 7.30008C13.2 7.80008 13.2 8.30009 13.2 8.90009Z" stroke="#DF3F53" stroke-width="0.5" stroke-miterlimit="10"/>
<path d="M17.3999 8.89999C17.3999 8.39999 17.3999 7.79999 17.3999 7.29999C17.3999 6.79999 17.6999 6.5 18.1999 6.5C18.5999 6.5 18.9999 6.5 19.3999 6.5C19.8999 6.5 20.1999 6.79999 20.1999 7.29999C20.1999 8.29999 20.1999 9.39999 20.1999 10.4C20.1999 10.9 19.9999 11.2 19.4999 11.2C19.0999 11.2 18.5999 11.2 18.1999 11.2C17.6999 11.2 17.4999 10.9 17.4999 10.4C17.3999 9.89999 17.3999 9.39999 17.3999 8.89999Z" fill="white" stroke="#DF3F53" stroke-width="0.5" stroke-miterlimit="10"/>
<path d="M35.3999 27.9001C35.0999 26.7001 34.7999 25.5001 34.3999 24.3001C35.0999 24.2001 35.9999 24.9001 36.2999 25.7001C36.5999 26.6001 36.0999 27.6001 35.3999 27.9001Z" fill="#DF3F53"/>
<path d="M41.2999 29.7C41.2999 30.1 40.9 30.3 40.5 30.2C40 30.1 39.5 29.9 39 29.8C38.7 29.7 38.3999 29.7 38.1999 29.6C37.8999 29.5 37.6999 29.2 37.7999 28.9C37.8999 28.6 38.2 28.5 38.5 28.6C39.3 28.8 40.0999 29 40.8999 29.2C41.1999 29.2 41.3999 29.4 41.2999 29.7Z" fill="#DF3F53"/>
<path d="M36.4001 22.5C36.0001 22.5 35.7001 22.1 35.9001 21.7C35.9001 21.6 36.0001 21.6 36.0001 21.5C36.6001 20.9 37.2001 20.3 37.8001 19.7C38.1001 19.4 38.6001 19.5 38.7001 20C38.7001 20.1 38.7001 20.4 38.6001 20.5C38.0001 21.1 37.4001 21.7 36.8001 22.3C36.7001 22.4 36.6001 22.4 36.4001 22.5Z" fill="#DF3F53"/>
<path d="M38.9999 25.6C38.6999 25.6 38.4999 25.4001 38.3999 25.2001C38.3999 25.0001 38.4999 24.7 38.7999 24.6C39.0999 24.5 39.3999 24.4 39.7999 24.3C40.1999 24.2 40.6999 24.1 41.0999 23.9C41.4999 23.8 41.6999 24 41.7999 24.3C41.8999 24.6 41.6999 24.9 41.3999 24.9C40.6999 25.1 39.8999 25.3 39.1999 25.5C39.0999 25.6 38.9999 25.6 38.9999 25.6Z" fill="#DF3F53"/>
</svg>
