<svg width="20" height="20" viewBox="0 0 20 20" fill="none" xmlns="http://www.w3.org/2000/svg">
<path d="M18.5259 7.75432C18.1692 6.18532 17.3982 4.74067 16.2935 3.57079C15.1888 2.40092 13.7906 1.54861 12.2446 1.10262C10.6986 0.656635 9.06125 0.633275 7.50314 1.03498C5.94504 1.43668 4.52312 2.24875 3.38545 3.38663C2.24778 4.52451 1.43597 5.94658 1.03456 7.50476C0.633147 9.06294 0.656811 10.7002 1.10309 12.2462C1.54936 13.7921 2.40193 15.1901 3.57201 16.2946C4.74209 17.3992 6.18688 18.1698 7.75595 18.5263M10.7469 18.7473H18.7469V11.7473" stroke="#DF3F53" stroke-width="1.5" stroke-linecap="round" stroke-linejoin="round"/>
<path d="M9.74695 5.74731V9.74731L12.7469 12.7473" stroke="#DF3F53" stroke-width="1.5" stroke-linecap="round" stroke-linejoin="round"/>
</svg>
