<svg width="32" height="32" viewBox="0 0 32 32" fill="none" xmlns="http://www.w3.org/2000/svg">
<path d="M16 2.66504C8.63523 2.66504 2.66504 8.63523 2.66504 16C2.66504 23.3648 8.63523 29.335 16 29.335C23.3648 29.335 29.335 23.3648 29.335 16C29.335 8.63523 23.3648 2.66504 16 2.66504ZM12.7357 21.5271H10.0354V12.8371H12.7357V21.5271ZM11.3689 11.7703C10.516 11.7703 9.96456 11.1661 9.96456 10.4188C9.96456 9.65619 10.5327 9.07001 11.4036 9.07001C12.2746 9.07001 12.808 9.65619 12.8246 10.4188C12.8246 11.1661 12.2746 11.7703 11.3689 11.7703ZM22.5981 21.5271H19.8977V16.7112C19.8977 15.5903 19.506 14.8291 18.5295 14.8291C17.7836 14.8291 17.3405 15.3444 17.1446 15.8403C17.0724 16.0167 17.0543 16.2667 17.0543 16.5154V21.5257H14.3526V15.6083C14.3526 14.5235 14.3179 13.6164 14.2818 12.8358H16.6279L16.7515 14.0428H16.8057C17.1613 13.4761 18.0322 12.6399 19.4894 12.6399C21.266 12.6399 22.5981 13.8303 22.5981 16.389V21.5271Z" fill="#FAFAFA"/>
</svg>
