<svg width="48" height="49" viewBox="0 0 48 49" fill="none" xmlns="http://www.w3.org/2000/svg">
<path d="M48.0001 0.100006C47.9001 0.100006 47.8001 0.100006 47.7001 0.100006C31.9001 0.100006 16.1001 0.100006 0.400085 0.100006C0.300085 0.100006 0.200098 0.100006 0.100098 0.100006C0.100098 0.200006 0.100098 0.299994 0.100098 0.399994C0.100098 16.2 0.100098 32 0.100098 47.7C0.100098 47.8 0.100098 47.9 0.100098 48C0.100098 47.9 0.100098 47.9 0.100098 47.8C0.100098 31.9 0.100098 15.9 0.100098 0C16.0001 0 32.0001 0 47.9001 0C47.9001 0.1 48.0001 0.100006 48.0001 0.100006Z" fill="white"/>
<path d="M22.4998 29.7C22.4998 30.4 22.3997 31.1 22.3997 31.8C23.2997 31.5 24.2997 31.6 25.1997 31.6C26.0997 31.6 27.0998 31.6 27.9998 31.6C28.7998 31.6 29.4998 32 29.9998 32.6L30.0998 32.7C30.2998 32.5 30.5998 32.4 30.7998 32.2C31.2998 31.7 31.8997 31.6 32.5998 31.6C33.4998 31.6 34.4997 31.6 35.3997 31.6C35.5997 31.6 35.6997 31.6 35.6997 31.3C35.6997 31.2 35.6998 31 35.7998 30.8C34.5998 31.2 33.3998 31.2 32.2998 30.5C31.5998 30.1 30.9997 29.5 30.6997 28.7C29.9997 27.1 30.2998 25.2 31.5998 24C32.7998 22.9 34.8998 22.4 36.7998 23.8C36.8998 23.4 36.8998 23 36.9998 22.7C37.0998 22.2 37.0997 21.7 37.1997 21.2C37.2997 20.5 37.9998 19.9 38.7998 19.9C39.5998 19.9 40.1997 20.5 40.3997 21.2C40.4997 21.6 40.3998 22.1 40.2998 22.5C40.1998 23.4 40.0998 24.3 39.9998 25.2C39.8998 26.1 39.7997 27 39.6997 27.9C39.5997 28.8 39.4998 29.7 39.2998 30.6C39.0998 31.9 39.0998 33.2 39.0998 34.6C39.0998 36.9 39.0998 39.2 39.0998 41.4C39.0998 41.8 38.9998 41.9 38.5998 41.9C30.0998 41.9 21.4998 41.9 12.9998 41.9C12.5998 41.9 12.5998 41.9 12.4998 41.5C12.3998 40.4 12.3998 39.3 12.2998 38.1C12.1998 36.8 12.1997 35.6 12.0998 34.3C12.0998 33.6 11.9998 32.9 11.9998 32.3C11.8998 30.9 11.8998 29.6 11.7998 28.2C11.7998 27.2 11.6997 26.1 11.6997 25.1C11.6997 24.5 11.5998 23.8 11.5998 23.2C11.5998 23.1 11.5998 23.1 11.5998 22.9C11.3997 23.1 11.0997 23.2 10.8997 23.4C10.3997 23.9 10.0997 24.6 9.89974 25.3C9.69974 26 9.59974 26.7 9.39974 27.4C9.39974 27.6 9.29975 27.7 9.09975 27.8C8.89975 27.8 8.79973 27.7 8.69973 27.6C8.19973 26.8 7.89973 25.8 7.69973 24.9C7.49973 23.7 7.49974 22.5 7.89974 21.3C8.49974 19.6 9.69976 18.4 11.2998 17.8C12.2998 17.4 13.2997 17.2 14.3997 17.1C15.3997 17 16.3997 17 17.3997 17C18.8997 17 20.2998 17.1 21.7998 17.5C23.5998 18 24.9997 19 25.8997 20.7C26.1997 21.2 26.2997 21.8 26.3997 22.3C26.3997 22.6 26.4998 22.9 26.4998 23.2C26.4998 23.3 26.5997 23.4 26.6997 23.4C27.7997 23.8 28.5998 24.5 29.0998 25.5C30.1998 27.6 29.0998 30.3 26.7998 31.1C25.1998 31.5 23.7998 31.1 22.4998 29.7C22.5998 29.8 22.4998 29.8 22.4998 29.7ZM13.1997 41.4C13.2997 41.4 13.3998 41.4 13.4998 41.4C15.3998 41.4 17.1998 41.4 19.0998 41.4C19.2998 41.4 19.3997 41.3 19.3997 41.1C19.4997 40.2 19.6997 39.2 19.8997 38.3C20.0997 37 20.2998 35.7 20.4998 34.4C20.5998 33.5 20.9997 32.8 21.6997 32.3C21.7997 32.3 21.7998 32.1 21.7998 32.1C21.8998 31.1 21.8998 30 21.9998 29C21.9998 28.9 21.9998 28.8 21.9998 28.7C21.4998 27.5 21.5997 26.4 22.1997 25.3C22.1997 25.2 22.2998 25.1 22.2998 25C22.2998 24.3 22.3997 23.6 22.3997 22.9C22.3997 22.4 22.3997 21.8 22.3997 21.3C22.3997 20.8 21.8998 20.5 21.4998 20.5C21.0998 20.5 20.5998 20.9 20.5998 21.3C20.5998 21.8 20.4998 22.2 20.4998 22.7C20.4998 23.6 20.3997 24.5 20.3997 25.4C20.2997 26.6 20.2997 27.7 20.1997 28.9C20.1997 29.7 20.0998 30.5 20.0998 31.3C20.0998 31.4 19.9998 31.5 19.9998 31.6C19.6998 31.8 19.4997 32 19.1997 32.1C18.3997 32.4 17.6998 32.4 16.7998 32.3C16.2998 32.2 15.6998 32.1 15.2998 31.8C15.0998 31.7 14.8997 31.5 14.8997 31.2C14.7997 29.9 14.7997 28.7 14.6997 27.4C14.5997 25.7 14.4997 24 14.3997 22.4C14.3997 22.1 14.3998 21.8 14.2998 21.4C14.2998 20.8 13.6998 20.5 13.2998 20.6C12.6998 20.6 12.3997 21 12.3997 21.6C12.3997 22.4 12.4998 23.3 12.4998 24.1C12.4998 25.1 12.5998 26.1 12.5998 27.1C12.6997 28.7 12.7998 30.3 12.7998 31.8C12.7998 32.8 12.8997 33.8 12.8997 34.9C12.9997 36.6 13.0998 38.3 13.0998 40C13.1997 40.4 13.1997 40.9 13.1997 41.4ZM31.8997 41.4C31.9997 41.4 32.0998 41.4 32.0998 41.4C34.1998 41.4 36.1998 41.4 38.2998 41.4C38.5998 41.4 38.5998 41.4 38.5998 41.1C38.5998 38.7 38.5998 36.4 38.5998 34C38.5998 32.5 38.6997 31 38.8997 29.5C39.0997 28.2 39.1997 26.9 39.3997 25.5C39.5997 24.3 39.6997 23 39.8997 21.8C39.9997 21.2 39.4997 20.7 38.8997 20.6C38.2997 20.6 37.7997 20.9 37.6997 21.6C37.3997 23.4 37.1997 25.2 36.8997 27.1C36.6997 28.7 36.3997 30.3 36.1997 31.9C36.1997 32.2 36.0997 32.3 35.6997 32.3C34.5997 32.3 33.3998 32.3 32.2998 32.3C32.1998 32.3 32.0997 32.3 31.8997 32.3C31.1997 32.4 30.7997 32.9 30.3997 33.3C31.0997 36 31.3997 38.7 31.8997 41.4ZM19.9998 41.3C23.7998 41.3 27.4998 41.3 31.2998 41.3C31.2998 41.2 31.2998 41.1 31.2998 41C31.0998 39.9 30.8998 38.8 30.7998 37.7C30.5998 36.6 30.3997 35.4 30.1997 34.3C29.9997 33.2 29.0997 32.3 27.8997 32.3C26.3997 32.3 24.8998 32.3 23.4998 32.3C22.3998 32.3 21.3997 33.1 21.1997 34.2C21.0997 34.7 20.9997 35.3 20.8997 35.8C20.5997 37.4 20.3998 38.9 20.0998 40.5C20.0998 40.7 19.9998 41 19.9998 41.3ZM26.0998 23.1C26.0998 22.9 26.0998 22.7 25.9998 22.5C25.6998 20.4 24.5997 19.1 22.6997 18.3C21.3997 17.8 20.0998 17.7 18.7998 17.6C17.1998 17.5 15.6997 17.5 14.0998 17.7C13.0998 17.8 12.0997 18 11.1997 18.5C9.99973 19.2 9.19976 20.1 8.79976 21.4C8.39976 22.7 8.39973 24 8.69973 25.4C8.79973 25.8 8.89975 26.2 9.09975 26.7C9.29975 26.1 9.39975 25.5 9.59975 24.9C9.89975 23.8 10.4998 22.9 11.5998 22.4C11.6997 22.4 11.6997 22.3 11.6997 22.2C11.6997 21.8 11.5997 21.4 11.6997 21.1C11.7997 20.3 12.5997 19.8 13.3997 19.9C14.0997 20 14.6997 20.6 14.6997 21.4C14.6997 21.8 14.5998 21.8 15.0998 21.7C16.4998 21.7 17.8998 21.7 19.2998 21.7C19.3998 21.7 19.4997 21.7 19.6997 21.7C19.6997 21.5 19.6998 21.3 19.7998 21.1C19.8998 20.4 20.5997 19.8 21.3997 19.9C22.0997 19.9 22.7997 20.5 22.8997 21.2C22.8997 21.5 22.8997 21.9 22.8997 22.3C22.8997 22.4 22.9998 22.5 22.9998 22.5C23.3998 22.7 23.7998 23 24.0998 23.3L24.2998 23.4C24.8998 23.2 25.4998 23.1 26.0998 23.1ZM25.5998 23.7C23.6998 23.7 22.1997 25.2 22.1997 27.1C22.1997 29 23.6997 30.5 25.6997 30.5C27.4997 30.5 29.0998 28.9 29.0998 27.1C29.0998 25.3 27.4998 23.7 25.5998 23.7ZM30.8997 27.2C30.8997 27.5 30.8998 27.7 30.9998 27.8C31.4998 30 33.7998 31.2 35.7998 30.2C35.8998 30.2 35.8997 30.1 35.8997 30C35.9997 29.4 36.0997 28.7 36.1997 28.1C36.3997 27 36.4997 25.9 36.6997 24.8C36.6997 24.7 36.6998 24.6 36.5998 24.5C35.4998 23.5 33.7998 23.4 32.5998 24.2C31.3997 24.9 30.8997 26 30.8997 27.2ZM16.9998 23.7C16.3998 23.7 15.6998 24 14.9998 24.5C14.8998 24.5 14.8997 24.6 14.8997 24.7C14.9997 26.4 15.0997 28 15.1997 29.7C15.1997 29.8 15.2998 29.9 15.2998 29.9C16.3998 30.7 17.5997 30.7 18.8997 30.1C19.2997 29.9 19.3997 29.7 19.3997 29.3C19.3997 28.6 19.4998 28 19.4998 27.3C19.4998 26.4 19.5998 25.6 19.5998 24.7C19.5998 24.6 19.5998 24.5 19.4998 24.5C18.8998 24 18.1998 23.7 16.9998 23.7ZM14.8997 23.9C16.4997 22.9 18.0997 22.9 19.6997 23.9C19.6997 23.4 19.7998 23 19.7998 22.6C19.7998 22.5 19.7998 22.4 19.5998 22.4C18.5998 22.4 17.5998 22.4 16.5998 22.4C16.0998 22.4 15.4998 22.4 14.9998 22.4C14.8998 22.4 14.7998 22.4 14.7998 22.6C14.8998 22.9 14.8997 23.4 14.8997 23.9ZM15.2998 30.7C15.2998 31 15.2998 31.2 15.5998 31.3C16.6998 31.8 17.8998 31.8 18.9998 31.3C19.2998 31.1 19.2998 31.1 19.2998 30.7C17.9998 31.4 16.5998 31.4 15.2998 30.7ZM22.8997 23C22.7997 23.4 22.7998 23.8 22.7998 24.2C23.0998 24 23.2998 23.8 23.5998 23.6C23.3998 23.4 23.0997 23.2 22.8997 23Z" fill="#DF3F53"/>
<path d="M40.7 10.3C40.6 10.4 40.6001 10.5 40.5001 10.6C39.1001 12.1 37.8 13.5 36.4 15C35.5 16 34.5 17 33.6 18C33.3 18.3 33.3 18.3 32.9 18C32.7 17.9 32.5 17.7 32.4 17.6C32.1 17.4 32.1 17.3 32.3 17C33.7 14.9 35.1001 12.8 36.5001 10.7C37.0001 9.99999 37.4 9.29999 37.9 8.59999C38.1 8.29999 38.2001 8.29998 38.5001 8.49998C39.1001 8.99998 39.8 9.39997 40.4 9.89997C40.5 10.1 40.6 10.2 40.7 10.3Z" fill="#DF3F53"/>
<path d="M24.9998 6.30008C25.3998 6.30008 25.7998 6.30008 26.1998 6.30008C26.4998 6.30008 26.5998 6.4001 26.5998 6.7001C26.4998 7.8001 26.3998 8.90009 26.2998 9.90009C26.1998 10.9001 26.0998 11.9001 25.9998 12.9001C25.8998 14.0001 25.7998 15.2001 25.5998 16.3001C25.4998 16.9001 25.4998 16.9001 24.8998 16.9001C24.6998 16.9001 24.4998 16.9001 24.2998 16.9001C24.0998 16.9001 23.9998 16.8001 23.9998 16.6001C23.9998 16.1001 23.8998 15.6001 23.8998 15.1001C23.7998 14.2001 23.7998 13.3001 23.6998 12.3001C23.5998 11.4001 23.5998 10.5001 23.4998 9.6001C23.3998 8.7001 23.3998 7.90009 23.2998 7.00009C23.2998 6.80009 23.2998 6.60009 23.2998 6.40009C23.2998 6.20009 23.3998 6.1001 23.6998 6.1001C24.0998 6.3001 24.5998 6.30008 24.9998 6.30008Z" fill="#DF3F53"/>
<path d="M16.2 15.5001C16.1 15.6001 16.1 15.7001 16 15.8001C15.7 16.0001 15.5 16.2001 15.2 16.4001C15 16.6001 14.9 16.6001 14.6 16.4001C13.3 15.0001 12 13.6001 10.7 12.3001C10.1 11.7001 9.5 11.0001 8.9 10.4001C8.7 10.2001 8.7 10.0001 8.9 9.80006C9.5 9.20006 10.1 8.70008 10.8 8.10008C11.1 7.80008 11.2 7.90009 11.4 8.20009C12.9 10.6001 14.4 12.9001 16 15.3001C16.1 15.3001 16.1 15.4001 16.2 15.5001Z" fill="#DF3F53"/>
<path d="M17.4999 8.5C17.5999 8.5 17.6998 8.59999 17.7998 8.79999C18.0998 9.49999 18.3998 10.2 18.6998 10.8C18.9998 11.6 19.2998 12.3 19.6998 13.1V13.2C19.7998 13.4 19.6998 13.6 19.5998 13.7C19.3998 13.8 19.2998 13.7 19.1998 13.5C18.8998 12.9 18.6998 12.3 18.3998 11.7C17.9998 10.8 17.6998 10 17.2998 9.10001C17.0998 8.80001 17.1999 8.5 17.4999 8.5Z" fill="#DF3F53"/>
<path d="M33.1002 9.09999C33.0002 9.19999 33.0002 9.29998 33.0002 9.39998C32.2002 10.8 31.4002 12.2 30.5002 13.5C30.4002 13.7 30.2002 13.8 30.0002 13.7C29.8002 13.6 29.8001 13.4 29.9001 13.2C30.7001 11.8 31.5001 10.4 32.4001 8.99998C32.5001 8.79998 32.6002 8.69997 32.8002 8.79997C33.0002 8.89997 33.0002 8.99999 33.1002 9.09999Z" fill="#DF3F53"/>
<path d="M40.4002 16.7999C40.4002 16.7999 40.3002 16.8999 40.2002 16.9999C39.3002 17.5999 38.4003 18.1999 37.5003 18.7999C37.3003 18.8999 37.1003 18.9 37.0003 18.7C36.9003 18.6 36.9002 18.3999 37.1002 18.2999C38.0002 17.6999 38.9003 17.0999 39.8003 16.4999C40.2003 16.2999 40.4002 16.4999 40.4002 16.7999Z" fill="#DF3F53"/>
<path d="M11.2001 16.4C11.2001 16.7 11.0001 16.9 10.7001 16.7C10.4001 16.5 10.1001 16.4 9.70013 16.2C9.40013 16 9.00013 15.9 8.70013 15.7C8.50013 15.6 8.40018 15.3999 8.50018 15.2999C8.60018 15.0999 8.80018 15.1 9.00018 15.2C9.60018 15.5 10.3001 15.8 10.9001 16.2C11.0001 16.3 11.1001 16.4 11.2001 16.4Z" fill="#DF3F53"/>
<path d="M17.2998 18.4999C17.5998 18.2999 17.8998 18.0999 18.2998 17.9999C18.9998 17.7999 19.4998 18.4999 19.2998 19.0999C19.1998 19.4999 18.8998 19.8999 18.5998 20.1999C18.2998 20.4999 17.8998 20.8999 17.4998 21.1999C17.3998 21.2999 17.1998 21.2999 17.0998 21.1999C16.4998 20.6999 15.8998 20.1999 15.4998 19.3999C15.3998 19.0999 15.2998 18.8999 15.2998 18.5999C15.3998 18.0999 15.9998 17.7999 16.4998 17.9999C16.7998 18.0999 16.9998 18.2999 17.2998 18.4999Z" fill="#DF3F53"/>
</svg>
