<svg width="24" height="24" viewBox="0 0 24 24" fill="none" xmlns="http://www.w3.org/2000/svg">
<mask id="path-1-inside-1_534_9476" fill="white">
<path d="M4.50001 17.27C4.35801 17.27 4.23934 17.2216 4.14401 17.125C4.04867 17.0283 4.00067 16.9093 4.00001 16.768C3.99934 16.6266 4.04734 16.508 4.14401 16.412C4.24067 16.316 4.35934 16.2683 4.50001 16.269H19.5C19.642 16.269 19.7607 16.317 19.856 16.413C19.952 16.509 20 16.628 20 16.77C20 16.912 19.952 17.0306 19.856 17.126C19.76 17.2213 19.6413 17.269 19.5 17.269L4.50001 17.27ZM4.50001 12.5C4.35801 12.5 4.23934 12.452 4.14401 12.356C4.04867 12.26 4.00067 12.141 4.00001 11.999C3.99934 11.857 4.04734 11.7383 4.14401 11.643C4.24067 11.5476 4.35934 11.5 4.50001 11.5H19.5C19.642 11.5 19.7607 11.548 19.856 11.644C19.9513 11.74 19.9993 11.859 20 12.001C20.0007 12.143 19.9527 12.2616 19.856 12.357C19.7593 12.4523 19.6407 12.5 19.5 12.5H4.50001ZM4.50001 7.72996C4.35801 7.72996 4.23934 7.68229 4.14401 7.58696C4.04801 7.49096 4.00001 7.37196 4.00001 7.22996C4.00001 7.08796 4.04801 6.96929 4.14401 6.87396C4.24001 6.77862 4.35867 6.73096 4.50001 6.73096H19.5C19.642 6.73096 19.7607 6.77896 19.856 6.87496C19.9513 6.97096 19.9993 7.08929 20 7.22996C20.0007 7.37062 19.9527 7.48929 19.856 7.58596C19.7593 7.68262 19.6407 7.73062 19.5 7.72996H4.50001Z"/>
</mask>
<path d="M4.50001 17.27C4.35801 17.27 4.23934 17.2216 4.14401 17.125C4.04867 17.0283 4.00067 16.9093 4.00001 16.768C3.99934 16.6266 4.04734 16.508 4.14401 16.412C4.24067 16.316 4.35934 16.2683 4.50001 16.269H19.5C19.642 16.269 19.7607 16.317 19.856 16.413C19.952 16.509 20 16.628 20 16.77C20 16.912 19.952 17.0306 19.856 17.126C19.76 17.2213 19.6413 17.269 19.5 17.269L4.50001 17.27ZM4.50001 12.5C4.35801 12.5 4.23934 12.452 4.14401 12.356C4.04867 12.26 4.00067 12.141 4.00001 11.999C3.99934 11.857 4.04734 11.7383 4.14401 11.643C4.24067 11.5476 4.35934 11.5 4.50001 11.5H19.5C19.642 11.5 19.7607 11.548 19.856 11.644C19.9513 11.74 19.9993 11.859 20 12.001C20.0007 12.143 19.9527 12.2616 19.856 12.357C19.7593 12.4523 19.6407 12.5 19.5 12.5H4.50001ZM4.50001 7.72996C4.35801 7.72996 4.23934 7.68229 4.14401 7.58696C4.04801 7.49096 4.00001 7.37196 4.00001 7.22996C4.00001 7.08796 4.04801 6.96929 4.14401 6.87396C4.24001 6.77862 4.35867 6.73096 4.50001 6.73096H19.5C19.642 6.73096 19.7607 6.77896 19.856 6.87496C19.9513 6.97096 19.9993 7.08929 20 7.22996C20.0007 7.37062 19.9527 7.48929 19.856 7.58596C19.7593 7.68262 19.6407 7.73062 19.5 7.72996H4.50001Z" fill="#634B57"/>
<path d="M4.50001 17.27V18.27H4.50007L4.50001 17.27ZM4.50001 16.269L4.49527 17.269H4.50001V16.269ZM19.856 16.413L19.1464 17.1176L19.1489 17.1201L19.856 16.413ZM19.5 17.269V16.269H19.4999L19.5 17.269ZM4.50001 6.73096V7.73096V6.73096ZM19.5 7.72996L19.5047 6.72996H19.5V7.72996ZM4.50001 17.27V16.27C4.54433 16.27 4.60895 16.2779 4.68172 16.3076C4.75541 16.3376 4.81419 16.3804 4.85601 16.4228L4.14401 17.125L3.43201 17.8271C3.72468 18.1239 4.1041 18.27 4.50001 18.27V17.27ZM4.14401 17.125L4.85601 16.4228C4.89564 16.463 4.93565 16.5191 4.9639 16.5891C4.99185 16.6584 4.99979 16.7202 5 16.7632L4.00001 16.768L3.00002 16.7727C3.00186 17.1633 3.14509 17.5362 3.43201 17.8271L4.14401 17.125ZM4.00001 16.768L5 16.7632C5.00021 16.8091 4.99217 16.8747 4.96254 16.9479C4.9326 17.022 4.89006 17.0804 4.84866 17.1215L4.14401 16.412L3.43935 15.7024C3.14467 15.9951 2.99814 16.3745 3.00002 16.7727L4.00001 16.768ZM4.14401 16.412L4.84866 17.1215C4.80837 17.1615 4.75101 17.2029 4.67825 17.2321C4.60613 17.2611 4.54127 17.2692 4.49527 17.2689L4.50001 16.269L4.50475 15.269C4.10808 15.2671 3.73126 15.4125 3.43935 15.7024L4.14401 16.412ZM4.50001 16.269V17.269H19.5V16.269V15.269H4.50001V16.269ZM19.5 16.269V17.269C19.4565 17.269 19.3927 17.2612 19.3205 17.232C19.2474 17.2024 19.1886 17.16 19.1464 17.1176L19.856 16.413L20.5656 15.7083C20.2724 15.4131 19.8937 15.269 19.5 15.269V16.269ZM19.856 16.413L19.1489 17.1201C19.1074 17.0786 19.0658 17.0206 19.0366 16.9483C19.0078 16.8768 19 16.8135 19 16.77H20H21C21 16.3763 20.856 15.9988 20.5631 15.7059L19.856 16.413ZM20 16.77H19C19 16.7265 19.0078 16.6627 19.037 16.5905C19.0666 16.5173 19.1089 16.4585 19.1514 16.4164L19.856 17.126L20.5606 17.8355C20.8559 17.5423 21 17.1637 21 16.77H20ZM19.856 17.126L19.1514 16.4164C19.1927 16.3753 19.2504 16.3341 19.3223 16.3053C19.3933 16.2767 19.4564 16.269 19.5 16.269V17.269V18.269C19.8922 18.269 20.2682 18.1259 20.5606 17.8355L19.856 17.126ZM19.5 17.269L19.4999 16.269L4.49994 16.27L4.50001 17.27L4.50007 18.27L19.5001 18.269L19.5 17.269ZM4.50001 12.5V11.5C4.54348 11.5 4.60731 11.5077 4.67949 11.5369C4.75264 11.5665 4.81142 11.6089 4.85357 11.6513L4.14401 12.356L3.43444 13.0606C3.72763 13.3558 4.1063 13.5 4.50001 13.5V12.5ZM4.14401 12.356L4.85357 11.6513C4.89463 11.6927 4.93536 11.7499 4.9639 11.8206C4.99207 11.8905 4.9998 11.9522 5 11.9943L4.00001 11.999L3.00002 12.0037C3.00185 12.3936 3.14429 12.7684 3.43444 13.0606L4.14401 12.356ZM4.00001 11.999L5 11.9943C5.00021 12.0391 4.99239 12.1046 4.96254 12.1784C4.93231 12.2532 4.88903 12.3127 4.84619 12.355L4.14401 11.643L3.44183 10.931C3.14383 11.2248 2.99815 11.6062 3.00002 12.0037L4.00001 11.999ZM4.14401 11.643L4.84619 12.355C4.80601 12.3946 4.74942 12.4351 4.67824 12.4636C4.60775 12.492 4.54458 12.5 4.50001 12.5V11.5V10.5C4.1071 10.5 3.73301 10.6438 3.44183 10.931L4.14401 11.643ZM4.50001 11.5V12.5H19.5V11.5V10.5H4.50001V11.5ZM19.5 11.5V12.5C19.4565 12.5 19.3927 12.4922 19.3205 12.463C19.2474 12.4334 19.1886 12.391 19.1464 12.3486L19.856 11.644L20.5656 10.9393C20.2724 10.6441 19.8937 10.5 19.5 10.5V11.5ZM19.856 11.644L19.1464 12.3486C19.1054 12.3073 19.0646 12.25 19.0361 12.1793C19.0079 12.1095 19.0002 12.0478 19 12.0057L20 12.001L21 11.9963C20.9982 11.6063 20.8557 11.2315 20.5656 10.9393L19.856 11.644ZM20 12.001L19 12.0057C18.9998 11.9608 19.0076 11.8953 19.0375 11.8215C19.0677 11.7467 19.111 11.6872 19.1538 11.645L19.856 12.357L20.5582 13.069C20.8562 12.7751 21.0019 12.3937 21 11.9963L20 12.001ZM19.856 12.357L19.1538 11.645C19.194 11.6053 19.2506 11.5649 19.3218 11.5363C19.3923 11.508 19.4554 11.5 19.5 11.5V12.5V13.5C19.8929 13.5 20.267 13.3561 20.5582 13.069L19.856 12.357ZM19.5 12.5V11.5H4.50001V12.5V13.5H19.5V12.5ZM4.50001 7.72996V6.72996C4.54262 6.72996 4.60566 6.73752 4.67725 6.76627C4.74986 6.79544 4.80863 6.83737 4.85111 6.87985L4.14401 7.58696L3.4369 8.29406C3.73059 8.58775 4.10849 8.72996 4.50001 8.72996V7.72996ZM4.14401 7.58696L4.85111 6.87985C4.89258 6.92131 4.93423 6.97929 4.9634 7.05163C4.99222 7.12308 5.00001 7.18645 5.00001 7.22996H4.00001H3.00001C3.00001 7.6236 3.14398 8.00115 3.4369 8.29406L4.14401 7.58696ZM4.00001 7.22996H5.00001C5.00001 7.27343 4.99224 7.33726 4.96304 7.40944C4.93345 7.48259 4.89109 7.54137 4.84865 7.58352L4.14401 6.87396L3.43937 6.16439C3.14413 6.45758 3.00001 6.83625 3.00001 7.22996H4.00001ZM4.14401 6.87396L4.84865 7.58352C4.80732 7.62456 4.74964 7.66576 4.67775 7.69464C4.60671 7.72318 4.5436 7.73096 4.50001 7.73096V6.73096V5.73096C4.10778 5.73096 3.73181 5.87398 3.43937 6.16439L4.14401 6.87396ZM4.50001 6.73096V7.73096H19.5V6.73096V5.73096H4.50001V6.73096ZM19.5 6.73096V7.73096C19.4565 7.73096 19.3927 7.72319 19.3205 7.69399C19.2474 7.6644 19.1886 7.62204 19.1464 7.5796L19.856 6.87496L20.5656 6.17032C20.2724 5.87508 19.8937 5.73096 19.5 5.73096V6.73096ZM19.856 6.87496L19.1464 7.5796C19.1063 7.53917 19.0656 7.48253 19.0368 7.41159C19.0084 7.34141 19.0002 7.27867 19 7.2347L20 7.22996L21 7.22522C20.9981 6.83378 20.8538 6.46056 20.5656 6.17032L19.856 6.87496ZM20 7.22996L19 7.2347C18.9998 7.18783 19.0081 7.12219 19.0375 7.04948C19.0671 6.97619 19.1089 6.91882 19.1489 6.87885L19.856 7.58596L20.5631 8.29306C20.8545 8.00166 21.0019 7.62408 21 7.22522L20 7.22996ZM19.856 7.58596L19.1489 6.87885C19.1889 6.83887 19.2462 6.79707 19.3195 6.76742C19.3922 6.73801 19.4579 6.72975 19.5047 6.72997L19.5 7.72996L19.4953 8.72995C19.8941 8.73184 20.2717 8.58447 20.5631 8.29306L19.856 7.58596ZM19.5 7.72996V6.72996H4.50001V7.72996V8.72996H19.5V7.72996Z" fill="#634B57" mask="url(#path-1-inside-1_534_9476)"/>
</svg>
