<svg width="24" height="25" viewBox="0 0 24 25" fill="none" xmlns="http://www.w3.org/2000/svg">
<g clip-path="url(#clip0_100_2981)">
<path d="M16.874 6.60742H9.385C9.1907 6.60742 9.0332 6.76492 9.0332 6.95922C9.0332 7.15352 9.1907 7.31102 9.385 7.31102H16.8739C17.0682 7.31102 17.2258 7.15352 17.2258 6.95922C17.2258 6.76487 17.0683 6.60742 16.874 6.60742Z" fill="#DF3F53"/>
<path d="M7.74896 6.60742H6.56274C6.36844 6.60742 6.21094 6.76492 6.21094 6.95922C6.21094 7.15352 6.36839 7.31102 6.56274 7.31102H7.74896C7.94325 7.31102 8.10075 7.15352 8.10075 6.95922C8.10075 6.76492 7.94325 6.60742 7.74896 6.60742Z" fill="#DF3F53"/>
<path d="M10.2424 17.3906H6.56274C6.36844 17.3906 6.21094 17.5481 6.21094 17.7424C6.21094 17.9368 6.36844 18.0942 6.56274 18.0942H10.2424C10.4367 18.0942 10.5942 17.9367 10.5942 17.7424C10.5942 17.5481 10.4367 17.3906 10.2424 17.3906Z" fill="#DF3F53"/>
<path d="M11.7188 13.7969H6.56274C6.36844 13.7969 6.21094 13.9544 6.21094 14.1487C6.21094 14.343 6.36844 14.5005 6.56274 14.5005H11.7188C11.9131 14.5005 12.0706 14.343 12.0706 14.1487C12.0706 13.9543 11.9131 13.7969 11.7188 13.7969Z" fill="#DF3F53"/>
<path d="M14.2286 10.2021H6.56274C6.36844 10.2021 6.21094 10.3596 6.21094 10.5539C6.21094 10.7482 6.36844 10.9057 6.56274 10.9057H14.2286C14.4229 10.9058 14.5804 10.7483 14.5804 10.5539C14.5804 10.3596 14.4229 10.2021 14.2286 10.2021Z" fill="#DF3F53"/>
<path d="M20.8859 3.00781H6.34662C5.05878 3.00781 4.01107 4.05556 4.01107 5.34341V19.1858H0.35177C0.257879 19.1858 0.167832 19.2234 0.101785 19.2901C0.0356913 19.3568 -0.000965051 19.4472 1.93259e-05 19.5411C0.0138944 20.938 1.01772 21.9913 2.33501 21.9913H16.8743H16.9186C18.2064 21.9913 19.2541 20.9435 19.2541 19.6557V15.3927C19.2541 15.1984 19.0966 15.041 18.9023 15.041C18.708 15.041 18.5505 15.1985 18.5505 15.3928V19.6557C18.5505 20.5556 17.8184 21.2877 16.9186 21.2877H16.8743C15.9541 21.2877 15.2528 20.5338 15.2429 19.5341C15.2409 19.3412 15.084 19.1858 14.8911 19.1858H4.71486V5.34336C4.71486 4.44346 5.44695 3.71141 6.34677 3.71141H19.2167C19.2064 3.72195 19.1966 3.73302 19.1865 3.7438C19.1742 3.75688 19.1618 3.76981 19.1498 3.78313C19.1371 3.79724 19.1249 3.81172 19.1125 3.82616C19.1007 3.83999 19.0887 3.85367 19.0772 3.86778C19.0652 3.88241 19.0538 3.89741 19.0422 3.91231C19.0309 3.92675 19.0196 3.94105 19.0087 3.95577C18.9975 3.97086 18.9868 3.98628 18.976 4.00166C18.9654 4.01675 18.9546 4.03175 18.9443 4.04708C18.9339 4.0626 18.924 4.07844 18.914 4.09424C18.904 4.10994 18.8939 4.1255 18.8843 4.14144C18.8747 4.15747 18.8656 4.17383 18.8563 4.1901C18.8471 4.20627 18.8376 4.22235 18.8288 4.2388C18.8199 4.25525 18.8116 4.27208 18.8031 4.28882C18.7946 4.3055 18.7859 4.32205 18.7779 4.33892C18.7697 4.35589 18.7623 4.37319 18.7546 4.39035C18.7469 4.40746 18.7389 4.42442 18.7317 4.44172C18.7243 4.45921 18.7177 4.47702 18.7107 4.49469C18.7039 4.51213 18.6968 4.52943 18.6904 4.54705C18.6838 4.56514 18.6779 4.58357 18.6718 4.60189C18.6659 4.61952 18.6596 4.63696 18.6541 4.65477C18.6483 4.67352 18.6433 4.6926 18.6379 4.71158C18.633 4.7293 18.6276 4.74688 18.623 4.76478C18.618 4.78447 18.6138 4.80444 18.6092 4.82432C18.6053 4.8418 18.6009 4.85919 18.5973 4.87682C18.5931 4.89749 18.5897 4.91839 18.5861 4.93925C18.5831 4.9565 18.5796 4.97357 18.577 4.99091C18.5736 5.01318 18.5712 5.03572 18.5684 5.05818C18.5664 5.07439 18.564 5.09043 18.5623 5.10674C18.5598 5.13186 18.5582 5.15727 18.5565 5.18263C18.5556 5.19655 18.5541 5.21038 18.5534 5.22435C18.5514 5.26377 18.5504 5.30347 18.5504 5.34341V5.46149V8.46585C18.5504 8.6602 18.7079 8.81765 18.9022 8.81765C19.0965 8.81765 19.254 8.66015 19.254 8.46585V5.81329H22.8729C22.9668 5.81329 23.0568 5.77574 23.1228 5.70904C23.1889 5.64229 23.2256 5.55191 23.2246 5.45802C23.2107 4.06114 22.2069 3.00781 20.8859 3.00781ZM14.5638 19.8895C14.5686 19.9259 14.5742 19.9619 14.5805 19.9977C14.5825 20.0097 14.5851 20.0215 14.5873 20.0335C14.5918 20.0571 14.5962 20.0808 14.6013 20.1041C14.6043 20.1182 14.6077 20.1319 14.6109 20.1458C14.6158 20.1669 14.6207 20.1879 14.6261 20.2087C14.6298 20.2233 14.6339 20.2377 14.6379 20.2521C14.6434 20.2719 14.6489 20.2916 14.6548 20.3112C14.6592 20.3259 14.6639 20.3404 14.6685 20.355C14.6746 20.374 14.681 20.3929 14.6875 20.4117C14.6925 20.4262 14.6976 20.4407 14.7029 20.455C14.7098 20.4737 14.7168 20.4921 14.7241 20.5105C14.7296 20.5245 14.7351 20.5384 14.7408 20.5523C14.7486 20.5709 14.7566 20.5893 14.7647 20.6076C14.7705 20.6208 14.7763 20.634 14.7824 20.647C14.7913 20.6663 14.8006 20.6852 14.81 20.7041C14.8158 20.7158 14.8214 20.7276 14.8274 20.7393C14.8388 20.7614 14.8508 20.7832 14.8628 20.805C14.8672 20.8129 14.8713 20.821 14.8758 20.8288C14.8925 20.8582 14.9098 20.8872 14.9277 20.9157C14.9318 20.9223 14.9363 20.9287 14.9405 20.9353C14.9544 20.9571 14.9685 20.9788 14.9831 21C14.9899 21.0098 14.9969 21.0193 15.0038 21.029C15.0163 21.0468 15.0289 21.0644 15.0419 21.0817C15.0497 21.0921 15.0578 21.1023 15.0657 21.1125C15.0783 21.1287 15.0909 21.1448 15.1039 21.1606C15.1124 21.1709 15.1211 21.1811 15.1298 21.1914C15.1427 21.2066 15.1558 21.2217 15.1691 21.2366C15.1781 21.2467 15.1872 21.2566 15.1963 21.2664C15.2028 21.2734 15.2091 21.2808 15.2157 21.2877H2.33496C1.52758 21.2877 0.88863 20.7071 0.737458 19.8895H14.5638ZM19.2713 5.1096C19.2714 5.10721 19.2717 5.10472 19.272 5.10229C19.2736 5.09155 19.2756 5.08091 19.2774 5.07027C19.2799 5.05527 19.2825 5.04027 19.2855 5.02536C19.2877 5.01402 19.2902 5.00277 19.2927 4.99152C19.2958 4.97755 19.299 4.96363 19.3024 4.9498C19.3053 4.93818 19.3084 4.9266 19.3115 4.91507C19.3151 4.90189 19.3188 4.88872 19.3227 4.87569C19.3262 4.86388 19.3299 4.85216 19.3337 4.84049C19.3378 4.82802 19.342 4.81564 19.3464 4.80327C19.3506 4.79132 19.3548 4.77936 19.3593 4.76755C19.3637 4.75588 19.3684 4.74435 19.3731 4.73277C19.378 4.72058 19.3829 4.70844 19.3882 4.69639C19.3928 4.68566 19.3977 4.67507 19.4026 4.66447C19.4084 4.65196 19.4141 4.63935 19.4201 4.62702C19.4246 4.61783 19.4295 4.60883 19.4342 4.59974C19.4411 4.58624 19.4479 4.57274 19.4552 4.55947C19.4581 4.55432 19.4612 4.54935 19.464 4.54424C19.4965 4.48672 19.5322 4.43122 19.5712 4.3783C19.5715 4.37778 19.5719 4.37732 19.5722 4.3768C19.5848 4.35983 19.5978 4.34319 19.611 4.32669C19.6131 4.32407 19.6151 4.32139 19.6172 4.31877C19.6301 4.30283 19.6434 4.28722 19.6569 4.2718C19.6593 4.26894 19.6618 4.26603 19.6644 4.26317C19.678 4.24771 19.6921 4.23257 19.7064 4.21761C19.7087 4.21517 19.711 4.21269 19.7134 4.21025C19.7282 4.19497 19.7433 4.17992 19.7587 4.16521C19.7604 4.16356 19.7621 4.16192 19.7639 4.16024C19.7801 4.14486 19.7966 4.12977 19.8135 4.11505C19.814 4.11453 19.8146 4.11406 19.8152 4.11355C20.0306 3.92591 20.2958 3.79358 20.5884 3.73911C20.5885 3.73906 20.5887 3.73906 20.5888 3.73902C20.6128 3.73456 20.637 3.73063 20.6613 3.72725C20.6627 3.72706 20.6642 3.72688 20.6657 3.72669C20.6889 3.7235 20.7122 3.72078 20.7357 3.71858C20.7392 3.71825 20.7429 3.71806 20.7465 3.71778C20.768 3.71591 20.7895 3.71431 20.8113 3.71328C20.8239 3.71272 20.8365 3.71263 20.8492 3.7123C20.8628 3.71197 20.8763 3.71136 20.89 3.71136C21.6974 3.71136 22.3363 4.29191 22.4875 5.1096H19.2713Z" fill="#DF3F53" stroke="#DF3F53" stroke-width="0.3"/>
<path d="M23.9993 9.492C23.9993 9.48793 23.9992 9.48385 23.9991 9.47972C23.9977 9.44663 23.9917 9.41475 23.9817 9.38457C23.9813 9.38307 23.9811 9.38152 23.9806 9.38007C23.9801 9.37885 23.9794 9.37772 23.979 9.3765C23.9735 9.36108 23.9671 9.34608 23.9596 9.33174C23.9587 9.32996 23.9576 9.32832 23.9566 9.32654C23.9497 9.31388 23.942 9.30174 23.9336 9.29007C23.9318 9.28758 23.9302 9.285 23.9283 9.28257C23.9191 9.27038 23.9091 9.25885 23.8983 9.24797C23.896 9.24558 23.8935 9.24338 23.8911 9.24108C23.881 9.23133 23.8703 9.22219 23.8591 9.21371C23.8576 9.21258 23.8561 9.21132 23.8546 9.21019C23.8419 9.201 23.8285 9.1928 23.8147 9.1853C23.812 9.18385 23.8094 9.18254 23.8066 9.18118C23.7925 9.17405 23.7781 9.16754 23.763 9.16233C23.7629 9.16229 23.7628 9.16224 23.7627 9.16224C23.7476 9.15708 23.732 9.15319 23.7161 9.15005C23.7126 9.14935 23.7091 9.14874 23.7055 9.14818C23.6896 9.14555 23.6735 9.14358 23.657 9.14316C20.7133 9.06699 16.8749 9.7756 14.9343 11.9909C14.085 12.9604 13.6932 14.1904 13.3142 15.3799C13.2832 15.4773 13.2522 15.5746 13.2209 15.6717C13.2196 15.6758 13.2184 15.6799 13.2172 15.6841L12.6226 17.7958C12.57 17.9828 12.6789 18.1771 12.8659 18.2298C12.8978 18.2388 12.9299 18.243 12.9614 18.243C13.115 18.243 13.2562 18.1416 13.2999 17.9864L13.8514 16.0279C14.5255 15.712 15.0683 15.5642 15.8015 15.3648C16.1818 15.2613 16.613 15.1442 17.1346 14.9837C18.2624 14.6368 20.426 13.1856 21.4217 12.1081C22.2926 11.1656 23.0254 10.4652 23.8719 9.76613C23.8729 9.76533 23.8737 9.76435 23.8747 9.76351C23.887 9.75305 23.8987 9.74194 23.9095 9.7299C23.9101 9.72915 23.9108 9.72849 23.9115 9.72779C23.9221 9.71574 23.9318 9.7028 23.9408 9.6893C23.9424 9.68682 23.944 9.68433 23.9456 9.6818C23.9625 9.65494 23.9758 9.62574 23.985 9.59461C23.9858 9.59166 23.9867 9.58875 23.9875 9.58575C23.9916 9.57047 23.9949 9.55491 23.997 9.53888C23.9971 9.53822 23.9971 9.53761 23.9971 9.53696C23.9984 9.52608 23.9993 9.51507 23.9996 9.50391C23.9998 9.49988 23.9994 9.49594 23.9993 9.492ZM15.4636 12.4545C16.2825 11.5197 17.5376 10.815 19.194 10.3601C19.6392 10.2379 20.1097 10.1364 20.5945 10.0564C19.3626 10.6538 18.1846 11.4021 17.5264 11.8418C16.464 12.5515 15.3173 13.4124 14.4704 14.178C14.721 13.5432 15.024 12.9564 15.4636 12.4545ZM20.905 11.6305C19.9359 12.6792 17.8429 14.0297 16.9278 14.3111C16.4172 14.4681 15.992 14.5838 15.6169 14.6858C15.2774 14.7781 14.9687 14.8622 14.6633 14.9591C14.7999 14.8283 14.96 14.6816 15.1488 14.517C15.9085 13.8543 16.8916 13.1121 17.9172 12.4269C19.6929 11.2407 21.2999 10.408 22.4789 10.047C21.9668 10.5186 21.4632 11.0263 20.905 11.6305Z" fill="#DF3F53"/>
</g>
<defs>
<clipPath id="clip0_100_2981">
<rect width="24" height="24" fill="white" transform="translate(0 0.5)"/>
</clipPath>
</defs>
</svg>
