<svg width="48" height="48" viewBox="0 0 48 48" fill="none" xmlns="http://www.w3.org/2000/svg">
<path d="M8.11513 23.9973C8.11085 20.3656 9.43039 16.8578 11.8251 14.1349C14.2197 11.4121 17.5241 9.66229 21.1154 9.21538C24.7067 8.76846 28.3369 9.65527 31.3217 11.7087C34.3066 13.7621 36.4399 16.8402 37.3197 20.363C38.3277 20.8475 39.1876 21.5871 39.8187 22.501C39.5782 19.7797 38.6879 17.1567 37.2231 14.8539C35.7583 12.5511 33.7621 10.6365 31.4037 9.27214C29.0452 7.90777 26.3938 7.13383 23.674 7.01586C20.9543 6.89789 18.2463 7.43936 15.7793 8.59442C13.3123 9.74948 11.1589 11.4841 9.50161 13.6515C7.84428 15.8188 6.73176 18.355 6.25826 21.0453C5.78475 23.7357 5.96421 26.5009 6.78142 29.1068C7.59863 31.7128 9.02955 34.0828 10.953 36.0161C11.1527 36.2097 11.4202 36.3168 11.6978 36.3143C11.9755 36.3119 12.241 36.2002 12.4374 36.0031C12.6337 35.8061 12.7451 35.5396 12.7475 35.2609C12.7499 34.9823 12.6432 34.7139 12.4503 34.5135C11.0735 33.1332 9.98182 31.4938 9.23788 29.6892C8.49395 27.8845 8.1124 25.9502 8.11513 23.9973ZM32.76 20.0144C31.8366 17.7303 30.1509 15.8393 27.9914 14.6648C25.832 13.4903 23.3329 13.1054 20.9219 13.5759C18.5109 14.0464 16.3377 15.3431 14.7742 17.2441C13.2107 19.1452 12.354 21.5323 12.3507 23.9973C12.3507 26.926 13.5325 29.5806 15.4427 31.5019C15.6422 31.6957 15.9095 31.8032 16.1872 31.8012C16.4648 31.7992 16.7306 31.6878 16.9272 31.4911C17.1238 31.2943 17.2355 31.0279 17.2383 30.7493C17.2411 30.4706 17.1348 30.2021 16.9421 30.0014C16.0522 29.1043 15.373 28.019 14.9544 26.8249C14.5357 25.6308 14.3881 24.3579 14.5222 23.0992C14.6564 21.8404 15.0689 20.6277 15.7298 19.5494C16.3906 18.4711 17.2831 17.5546 18.342 16.8667C19.4009 16.1788 20.5995 15.7369 21.8504 15.5732C23.1012 15.4096 24.3726 15.5284 25.5719 15.9209C26.7711 16.3133 27.8679 16.9697 28.7821 17.8419C29.6963 18.7141 30.4049 19.7802 30.8561 20.9623C31.4332 20.5413 32.0769 20.2208 32.76 20.0144ZM18.7042 23.9973C18.7042 22.8699 19.1504 21.7888 19.9447 20.9916C20.7391 20.1944 21.8164 19.7466 22.9398 19.7466C24.0631 19.7466 25.1405 20.1944 25.9348 20.9916C26.7291 21.7888 27.1754 22.8699 27.1754 23.9973C27.1754 25.1246 26.7291 26.2058 25.9348 27.003C25.1405 27.8001 24.0631 28.248 22.9398 28.248C21.8164 28.248 20.7391 27.8001 19.9447 27.003C19.1504 26.2058 18.7042 25.1246 18.7042 23.9973ZM22.9398 21.8719C22.3781 21.8719 21.8394 22.0959 21.4422 22.4944C21.0451 22.893 20.822 23.4336 20.822 23.9973C20.822 24.561 21.0451 25.1015 21.4422 25.5001C21.8394 25.8987 22.3781 26.1226 22.9398 26.1226C23.5014 26.1226 24.0401 25.8987 24.4373 25.5001C24.8344 25.1015 25.0576 24.561 25.0576 23.9973C25.0576 23.4336 24.8344 22.893 24.4373 22.4944C24.0401 22.0959 23.5014 21.8719 22.9398 21.8719ZM38.8233 26.1226C38.8233 27.25 38.377 28.3312 37.5827 29.1283C36.7884 29.9255 35.711 30.3733 34.5877 30.3733C33.4643 30.3733 32.387 29.9255 31.5927 29.1283C30.7983 28.3312 30.3521 27.25 30.3521 26.1226C30.3521 24.9953 30.7983 23.9141 31.5927 23.1169C32.387 22.3198 33.4643 21.8719 34.5877 21.8719C35.711 21.8719 36.7884 22.3198 37.5827 23.1169C38.377 23.9141 38.8233 24.9953 38.8233 26.1226ZM42 35.6867C42 38.3327 39.8822 41 34.5877 41C29.2932 41 27.1754 38.3433 27.1754 35.6867C27.1754 34.8411 27.5101 34.0303 28.1058 33.4324C28.7016 32.8345 29.5096 32.4986 30.3521 32.4986H38.8233C39.6658 32.4986 40.4738 32.8345 41.0696 33.4324C41.6653 34.0303 42 34.8411 42 35.6867Z" fill="#DF3F53"/>
</svg>
