<svg width="12" height="10" viewBox="0 0 12 10" fill="none" xmlns="http://www.w3.org/2000/svg">
<path d="M11.0668 4.75104C11.1832 4.86855 11.2485 5.02728 11.2485 5.1927C11.2485 5.35813 11.1832 5.51686 11.0668 5.63437L6.90011 9.80104C6.84289 9.86244 6.77389 9.91169 6.69723 9.94585C6.62056 9.98001 6.5378 9.99838 6.45388 9.99986C6.36996 10.0013 6.2866 9.98591 6.20878 9.95447C6.13096 9.92304 6.06026 9.87625 6.00091 9.8169C5.94156 9.75755 5.89478 9.68686 5.86334 9.60903C5.83191 9.53121 5.81647 9.44785 5.81795 9.36393C5.81943 9.28001 5.8378 9.19725 5.87196 9.12059C5.90612 9.04392 5.95537 8.97492 6.01678 8.9177L9.11678 5.8177L0.625111 5.8177C0.459351 5.8177 0.30038 5.75185 0.183169 5.63464C0.0659588 5.51743 0.000111364 5.35846 0.000111371 5.1927C0.000111378 5.02694 0.0659588 4.86797 0.183169 4.75076C0.30038 4.63355 0.459351 4.5677 0.625111 4.5677L9.11678 4.5677L6.01678 1.4677C5.90638 1.34922 5.84627 1.19252 5.84913 1.0306C5.85199 0.868682 5.91758 0.714195 6.03209 0.599684C6.1466 0.485173 6.30109 0.41958 6.46301 0.416723C6.62493 0.413866 6.78163 0.473969 6.90011 0.584369L11.0668 4.75104Z" fill="#007299"/>
</svg>
